<?xml version="1.0" encoding="UTF-8" standalone="no"?>
<!DOCTYPE svg PUBLIC "-//W3C//DTD SVG 1.1//EN"
 "http://www.w3.org/Graphics/SVG/1.1/DTD/svg11.dtd">
<!-- Generated by graphviz version 9.0.0 (20230911.1827)
 -->
<!-- Title: dependency&#45;cruiser output Pages: 1 -->
<svg width="704pt" height="1424pt"
 viewBox="0.00 0.00 704.38 1424.00" xmlns="http://www.w3.org/2000/svg" xmlns:xlink="http://www.w3.org/1999/xlink">
<g id="graph0" class="graph" transform="scale(1 1) rotate(0) translate(4 1420)">
<title>dependency&#45;cruiser output</title>
<polygon fill="white" stroke="none" points="-4,4 -4,-1420 700.38,-1420 700.38,4 -4,4"/>
<g id="clust1" class="cluster">
<title>cluster_@</title>
<path fill="#ffffff" stroke="black" stroke-width="2" d="M365.12,-8C365.12,-8 497.12,-8 497.12,-8 503.12,-8 509.12,-14 509.12,-20 509.12,-20 509.12,-742 509.12,-742 509.12,-748 503.12,-754 497.12,-754 497.12,-754 365.12,-754 365.12,-754 359.12,-754 353.12,-748 353.12,-742 353.12,-742 353.12,-20 353.12,-20 353.12,-14 359.12,-8 365.12,-8"/>
<text text-anchor="middle" x="431.12" y="-741.45" font-family="Helvetica,sans-Serif" font-weight="bold" font-size="9.00">@</text>
</g>
<g id="clust2" class="cluster">
<title>cluster_@/assets</title>
<path fill="#ffffff" stroke="black" stroke-width="2" d="M408.12,-16C408.12,-16 454.12,-16 454.12,-16 460.12,-16 466.12,-22 466.12,-28 466.12,-28 466.12,-56 466.12,-56 466.12,-62 460.12,-68 454.12,-68 454.12,-68 408.12,-68 408.12,-68 402.12,-68 396.12,-62 396.12,-56 396.12,-56 396.12,-28 396.12,-28 396.12,-22 402.12,-16 408.12,-16"/>
<text text-anchor="middle" x="431.12" y="-55.45" font-family="Helvetica,sans-Serif" font-weight="bold" font-size="9.00">assets</text>
</g>
<g id="clust3" class="cluster">
<title>cluster_@/components</title>
<path fill="#ffffff" stroke="black" stroke-width="2" d="M377.88,-436C377.88,-436 484.38,-436 484.38,-436 490.38,-436 496.38,-442 496.38,-448 496.38,-448 496.38,-716 496.38,-716 496.38,-722 490.38,-728 484.38,-728 484.38,-728 377.88,-728 377.88,-728 371.88,-728 365.88,-722 365.88,-716 365.88,-716 365.88,-448 365.88,-448 365.88,-442 371.88,-436 377.88,-436"/>
<text text-anchor="middle" x="431.12" y="-715.45" font-family="Helvetica,sans-Serif" font-weight="bold" font-size="9.00">components</text>
</g>
<g id="clust4" class="cluster">
<title>cluster_@/components/Category</title>
<path fill="#ffffff" stroke="black" stroke-width="2" d="M389.62,-504C389.62,-504 472.62,-504 472.62,-504 478.62,-504 484.62,-510 484.62,-516 484.62,-516 484.62,-544 484.62,-544 484.62,-550 478.62,-556 472.62,-556 472.62,-556 389.62,-556 389.62,-556 383.62,-556 377.62,-550 377.62,-544 377.62,-544 377.62,-516 377.62,-516 377.62,-510 383.62,-504 389.62,-504"/>
<text text-anchor="middle" x="431.12" y="-543.45" font-family="Helvetica,sans-Serif" font-weight="bold" font-size="9.00">Category</text>
</g>
<g id="clust5" class="cluster">
<title>cluster_@/components/Deals</title>
<path fill="#ffffff" stroke="black" stroke-width="2" d="M398.62,-650C398.62,-650 463.62,-650 463.62,-650 469.62,-650 475.62,-656 475.62,-662 475.62,-662 475.62,-690 475.62,-690 475.62,-696 469.62,-702 463.62,-702 463.62,-702 398.62,-702 398.62,-702 392.62,-702 386.62,-696 386.62,-690 386.62,-690 386.62,-662 386.62,-662 386.62,-656 392.62,-650 398.62,-650"/>
<text text-anchor="middle" x="431.12" y="-689.45" font-family="Helvetica,sans-Serif" font-weight="bold" font-size="9.00">Deals</text>
</g>
<g id="clust6" class="cluster">
<title>cluster_@/components/Header</title>
<path fill="#ffffff" stroke="black" stroke-width="2" d="M396,-444C396,-444 466.25,-444 466.25,-444 472.25,-444 478.25,-450 478.25,-456 478.25,-456 478.25,-484 478.25,-484 478.25,-490 472.25,-496 466.25,-496 466.25,-496 396,-496 396,-496 390,-496 384,-490 384,-484 384,-484 384,-456 384,-456 384,-450 390,-444 396,-444"/>
<text text-anchor="middle" x="431.12" y="-483.45" font-family="Helvetica,sans-Serif" font-weight="bold" font-size="9.00">Header</text>
</g>
<g id="clust7" class="cluster">
<title>cluster_@/components/Restaurants</title>
<path fill="#ffffff" stroke="black" stroke-width="2" d="M385.88,-590C385.88,-590 476.38,-590 476.38,-590 482.38,-590 488.38,-596 488.38,-602 488.38,-602 488.38,-630 488.38,-630 488.38,-636 482.38,-642 476.38,-642 476.38,-642 385.88,-642 385.88,-642 379.88,-642 373.88,-636 373.88,-630 373.88,-630 373.88,-602 373.88,-602 373.88,-596 379.88,-590 385.88,-590"/>
<text text-anchor="middle" x="431.12" y="-629.45" font-family="Helvetica,sans-Serif" font-weight="bold" font-size="9.00">Restaurants</text>
</g>
<g id="clust8" class="cluster">
<title>cluster_@/layouts</title>
<path fill="#ffffff" stroke="black" stroke-width="2" d="M394.5,-256C394.5,-256 467.75,-256 467.75,-256 473.75,-256 479.75,-262 479.75,-268 479.75,-268 479.75,-296 479.75,-296 479.75,-302 473.75,-308 467.75,-308 467.75,-308 394.5,-308 394.5,-308 388.5,-308 382.5,-302 382.5,-296 382.5,-296 382.5,-268 382.5,-268 382.5,-262 388.5,-256 394.5,-256"/>
<text text-anchor="middle" x="431.12" y="-295.45" font-family="Helvetica,sans-Serif" font-weight="bold" font-size="9.00">layouts</text>
</g>
<g id="clust9" class="cluster">
<title>cluster_@/stores</title>
<path fill="#ffffff" stroke="black" stroke-width="2" d="M399.75,-316C399.75,-316 462.5,-316 462.5,-316 468.5,-316 474.5,-322 474.5,-328 474.5,-328 474.5,-416 474.5,-416 474.5,-422 468.5,-428 462.5,-428 462.5,-428 399.75,-428 399.75,-428 393.75,-428 387.75,-422 387.75,-416 387.75,-416 387.75,-328 387.75,-328 387.75,-322 393.75,-316 399.75,-316"/>
<text text-anchor="middle" x="431.12" y="-415.45" font-family="Helvetica,sans-Serif" font-weight="bold" font-size="9.00">stores</text>
</g>
<g id="clust10" class="cluster">
<title>cluster_@/views</title>
<path fill="#ffffff" stroke="black" stroke-width="2" d="M373.12,-76C373.12,-76 489.12,-76 489.12,-76 495.12,-76 501.12,-82 501.12,-88 501.12,-88 501.12,-236 501.12,-236 501.12,-242 495.12,-248 489.12,-248 489.12,-248 373.12,-248 373.12,-248 367.12,-248 361.12,-242 361.12,-236 361.12,-236 361.12,-88 361.12,-88 361.12,-82 367.12,-76 373.12,-76"/>
<text text-anchor="middle" x="431.12" y="-235.45" font-family="Helvetica,sans-Serif" font-weight="bold" font-size="9.00">views</text>
</g>
<g id="clust11" class="cluster">
<title>cluster_src</title>
<path fill="#ffffff" stroke="black" stroke-width="2" d="M20,-788C20,-788 676.38,-788 676.38,-788 682.38,-788 688.38,-794 688.38,-800 688.38,-800 688.38,-1302 688.38,-1302 688.38,-1308 682.38,-1314 676.38,-1314 676.38,-1314 20,-1314 20,-1314 14,-1314 8,-1308 8,-1302 8,-1302 8,-800 8,-800 8,-794 14,-788 20,-788"/>
<text text-anchor="middle" x="348.19" y="-1301.45" font-family="Helvetica,sans-Serif" font-weight="bold" font-size="9.00">src</text>
</g>
<g id="clust12" class="cluster">
<title>cluster_src/components</title>
<path fill="#ffffff" stroke="black" stroke-width="2" d="M377.88,-876C377.88,-876 598.38,-876 598.38,-876 604.38,-876 610.38,-882 610.38,-888 610.38,-888 610.38,-1276 610.38,-1276 610.38,-1282 604.38,-1288 598.38,-1288 598.38,-1288 377.88,-1288 377.88,-1288 371.88,-1288 365.88,-1282 365.88,-1276 365.88,-1276 365.88,-888 365.88,-888 365.88,-882 371.88,-876 377.88,-876"/>
<text text-anchor="middle" x="488.12" y="-1275.45" font-family="Helvetica,sans-Serif" font-weight="bold" font-size="9.00">components</text>
</g>
<g id="clust13" class="cluster">
<title>cluster_src/components/Buttons</title>
<path fill="#ffffff" stroke="black" stroke-width="2" d="M389.62,-1210C389.62,-1210 472.62,-1210 472.62,-1210 478.62,-1210 484.62,-1216 484.62,-1222 484.62,-1222 484.62,-1250 484.62,-1250 484.62,-1256 478.62,-1262 472.62,-1262 472.62,-1262 389.62,-1262 389.62,-1262 383.62,-1262 377.62,-1256 377.62,-1250 377.62,-1250 377.62,-1222 377.62,-1222 377.62,-1216 383.62,-1210 389.62,-1210"/>
<text text-anchor="middle" x="431.12" y="-1249.45" font-family="Helvetica,sans-Serif" font-weight="bold" font-size="9.00">Buttons</text>
</g>
<g id="clust14" class="cluster">
<title>cluster_src/components/Cards</title>
<path fill="#ffffff" stroke="black" stroke-width="2" d="M399.75,-1150C399.75,-1150 462.5,-1150 462.5,-1150 468.5,-1150 474.5,-1156 474.5,-1162 474.5,-1162 474.5,-1190 474.5,-1190 474.5,-1196 468.5,-1202 462.5,-1202 462.5,-1202 399.75,-1202 399.75,-1202 393.75,-1202 387.75,-1196 387.75,-1190 387.75,-1190 387.75,-1162 387.75,-1162 387.75,-1156 393.75,-1150 399.75,-1150"/>
<text text-anchor="middle" x="431.12" y="-1189.45" font-family="Helvetica,sans-Serif" font-weight="bold" font-size="9.00">Cards</text>
</g>
<g id="clust15" class="cluster">
<title>cluster_src/components/Category</title>
<path fill="#ffffff" stroke="black" stroke-width="2" d="M389.62,-1090C389.62,-1090 472.62,-1090 472.62,-1090 478.62,-1090 484.62,-1096 484.62,-1102 484.62,-1102 484.62,-1130 484.62,-1130 484.62,-1136 478.62,-1142 472.62,-1142 472.62,-1142 389.62,-1142 389.62,-1142 383.62,-1142 377.62,-1136 377.62,-1130 377.62,-1130 377.62,-1102 377.62,-1102 377.62,-1096 383.62,-1090 389.62,-1090"/>
<text text-anchor="middle" x="431.12" y="-1129.45" font-family="Helvetica,sans-Serif" font-weight="bold" font-size="9.00">Category</text>
</g>
<g id="clust16" class="cluster">
<title>cluster_src/components/Deals</title>
<path fill="#ffffff" stroke="black" stroke-width="2" d="M398.62,-1030C398.62,-1030 463.62,-1030 463.62,-1030 469.62,-1030 475.62,-1036 475.62,-1042 475.62,-1042 475.62,-1070 475.62,-1070 475.62,-1076 469.62,-1082 463.62,-1082 463.62,-1082 398.62,-1082 398.62,-1082 392.62,-1082 386.62,-1076 386.62,-1070 386.62,-1070 386.62,-1042 386.62,-1042 386.62,-1036 392.62,-1030 398.62,-1030"/>
<text text-anchor="middle" x="431.12" y="-1069.45" font-family="Helvetica,sans-Serif" font-weight="bold" font-size="9.00">Deals</text>
</g>
<g id="clust17" class="cluster">
<title>cluster_src/components/Hashtags</title>
<path fill="#ffffff" stroke="black" stroke-width="2" d="M530.62,-970C530.62,-970 590.38,-970 590.38,-970 596.38,-970 602.38,-976 602.38,-982 602.38,-982 602.38,-1010 602.38,-1010 602.38,-1016 596.38,-1022 590.38,-1022 590.38,-1022 530.62,-1022 530.62,-1022 524.62,-1022 518.62,-1016 518.62,-1010 518.62,-1010 518.62,-982 518.62,-982 518.62,-976 524.62,-970 530.62,-970"/>
<text text-anchor="middle" x="560.5" y="-1009.45" font-family="Helvetica,sans-Serif" font-weight="bold" font-size="9.00">Hashtags</text>
</g>
<g id="clust18" class="cluster">
<title>cluster_src/components/Header</title>
<path fill="#ffffff" stroke="black" stroke-width="2" d="M396,-910C396,-910 466.25,-910 466.25,-910 472.25,-910 478.25,-916 478.25,-922 478.25,-922 478.25,-950 478.25,-950 478.25,-956 472.25,-962 466.25,-962 466.25,-962 396,-962 396,-962 390,-962 384,-956 384,-950 384,-950 384,-922 384,-922 384,-916 390,-910 396,-910"/>
<text text-anchor="middle" x="431.12" y="-949.45" font-family="Helvetica,sans-Serif" font-weight="bold" font-size="9.00">Header</text>
</g>
<g id="clust19" class="cluster">
<title>cluster_src/components/Restaurants</title>
<path fill="#ffffff" stroke="black" stroke-width="2" d="M385.88,-970C385.88,-970 476.38,-970 476.38,-970 482.38,-970 488.38,-976 488.38,-982 488.38,-982 488.38,-1010 488.38,-1010 488.38,-1016 482.38,-1022 476.38,-1022 476.38,-1022 385.88,-1022 385.88,-1022 379.88,-1022 373.88,-1016 373.88,-1010 373.88,-1010 373.88,-982 373.88,-982 373.88,-976 379.88,-970 385.88,-970"/>
<text text-anchor="middle" x="431.12" y="-1009.45" font-family="Helvetica,sans-Serif" font-weight="bold" font-size="9.00">Restaurants</text>
</g>
<g id="clust20" class="cluster">
<title>cluster_src/layouts</title>
<path fill="#ffffff" stroke="black" stroke-width="2" d="M28,-796C28,-796 101.25,-796 101.25,-796 107.25,-796 113.25,-802 113.25,-808 113.25,-808 113.25,-836 113.25,-836 113.25,-842 107.25,-848 101.25,-848 101.25,-848 28,-848 28,-848 22,-848 16,-842 16,-836 16,-836 16,-808 16,-808 16,-802 22,-796 28,-796"/>
<text text-anchor="middle" x="64.62" y="-835.45" font-family="Helvetica,sans-Serif" font-weight="bold" font-size="9.00">layouts</text>
</g>
<g id="clust21" class="cluster">
<title>cluster_src/router</title>
<path fill="#ffffff" stroke="black" stroke-width="2" d="M139.12,-796C139.12,-796 185.12,-796 185.12,-796 191.12,-796 197.12,-802 197.12,-808 197.12,-808 197.12,-836 197.12,-836 197.12,-842 191.12,-848 185.12,-848 185.12,-848 139.12,-848 139.12,-848 133.12,-848 127.12,-842 127.12,-836 127.12,-836 127.12,-808 127.12,-808 127.12,-802 133.12,-796 139.12,-796"/>
<text text-anchor="middle" x="162.12" y="-835.45" font-family="Helvetica,sans-Serif" font-weight="bold" font-size="9.00">router</text>
</g>
<g id="clust22" class="cluster">
<title>cluster_src/stores</title>
<path fill="#ffffff" stroke="black" stroke-width="2" d="M529.12,-816C529.12,-816 668.38,-816 668.38,-816 674.38,-816 680.38,-822 680.38,-828 680.38,-828 680.38,-856 680.38,-856 680.38,-862 674.38,-868 668.38,-868 668.38,-868 529.12,-868 529.12,-868 523.12,-868 517.12,-862 517.12,-856 517.12,-856 517.12,-828 517.12,-828 517.12,-822 523.12,-816 529.12,-816"/>
<text text-anchor="middle" x="598.75" y="-855.45" font-family="Helvetica,sans-Serif" font-weight="bold" font-size="9.00">stores</text>
</g>
<g id="clust23" class="cluster">
<title>cluster_src/views</title>
<path fill="#ffffff" stroke="black" stroke-width="2" d="M217.12,-796C217.12,-796 333.12,-796 333.12,-796 339.12,-796 345.12,-802 345.12,-808 345.12,-808 345.12,-1046 345.12,-1046 345.12,-1052 339.12,-1058 333.12,-1058 333.12,-1058 217.12,-1058 217.12,-1058 211.12,-1058 205.12,-1052 205.12,-1046 205.12,-1046 205.12,-808 205.12,-808 205.12,-802 211.12,-796 217.12,-796"/>
<text text-anchor="middle" x="275.12" y="-1045.45" font-family="Helvetica,sans-Serif" font-weight="bold" font-size="9.00">views</text>
</g>
<g id="clust24" class="cluster">
<title>cluster_tests</title>
<path fill="#ffffff" stroke="black" stroke-width="2" d="M230.12,-1322C230.12,-1322 320.12,-1322 320.12,-1322 326.12,-1322 332.12,-1328 332.12,-1334 332.12,-1334 332.12,-1396 332.12,-1396 332.12,-1402 326.12,-1408 320.12,-1408 320.12,-1408 230.12,-1408 230.12,-1408 224.12,-1408 218.12,-1402 218.12,-1396 218.12,-1396 218.12,-1334 218.12,-1334 218.12,-1328 224.12,-1322 230.12,-1322"/>
<text text-anchor="middle" x="275.12" y="-1395.45" font-family="Helvetica,sans-Serif" font-weight="bold" font-size="9.00">tests</text>
</g>
<g id="clust25" class="cluster">
<title>cluster_tests/unit</title>
<path fill="#ffffff" stroke="black" stroke-width="2" d="M238.12,-1330C238.12,-1330 312.12,-1330 312.12,-1330 318.12,-1330 324.12,-1336 324.12,-1342 324.12,-1342 324.12,-1370 324.12,-1370 324.12,-1376 318.12,-1382 312.12,-1382 312.12,-1382 238.12,-1382 238.12,-1382 232.12,-1382 226.12,-1376 226.12,-1370 226.12,-1370 226.12,-1342 226.12,-1342 226.12,-1336 232.12,-1330 238.12,-1330"/>
<text text-anchor="middle" x="275.12" y="-1369.45" font-family="Helvetica,sans-Serif" font-weight="bold" font-size="9.00">unit</text>
</g>
<!-- ./categories -->
<g id="node1" class="node">
<title>./categories</title>
<g id="a_node1"><a xlink:title="categories">
<path fill="#ffffcc" stroke="black" d="M454.58,-779.88C454.58,-779.88 407.67,-779.88 407.67,-779.88 404.71,-779.88 401.75,-776.92 401.75,-773.96 401.75,-773.96 401.75,-768.04 401.75,-768.04 401.75,-765.08 404.71,-762.12 407.67,-762.12 407.67,-762.12 454.58,-762.12 454.58,-762.12 457.54,-762.12 460.5,-765.08 460.5,-768.04 460.5,-768.04 460.5,-773.96 460.5,-773.96 460.5,-776.92 457.54,-779.88 454.58,-779.88"/>
<text text-anchor="start" x="409.75" y="-767.33" font-family="Helvetica,sans-Serif" font-size="9.00">categories</text>
</a>
</g>
</g>
<!-- .dependency&#45;cruiser.js -->
<g id="node2" class="node">
<title>.dependency&#45;cruiser.js</title>
<g id="a_node2"><a xlink:href=".dependency-cruiser.js" xlink:title=".dependency&#45;cruiser.js">
<path fill="#ccffcc" stroke="black" d="M113.21,-1339.88C113.21,-1339.88 16.04,-1339.88 16.04,-1339.88 13.08,-1339.88 10.12,-1336.92 10.12,-1333.96 10.12,-1333.96 10.12,-1328.04 10.12,-1328.04 10.12,-1325.08 13.08,-1322.12 16.04,-1322.12 16.04,-1322.12 113.21,-1322.12 113.21,-1322.12 116.17,-1322.12 119.12,-1325.08 119.12,-1328.04 119.12,-1328.04 119.12,-1333.96 119.12,-1333.96 119.12,-1336.92 116.17,-1339.88 113.21,-1339.88"/>
<text text-anchor="middle" x="64.62" y="-1327.33" font-family="Helvetica,sans-Serif" font-size="9.00">.dependency&#45;cruiser.js</text>
</a>
</g>
</g>
<!-- @/assets/main.css -->
<g id="node3" class="node">
<title>@/assets/main.css</title>
<g id="a_node3"><a xlink:title="main.css">
<path fill="#ffffcc" stroke="black" d="M452.21,-41.88C452.21,-41.88 410.04,-41.88 410.04,-41.88 407.08,-41.88 404.12,-38.92 404.12,-35.96 404.12,-35.96 404.12,-30.04 404.12,-30.04 404.12,-27.08 407.08,-24.12 410.04,-24.12 410.04,-24.12 452.21,-24.12 452.21,-24.12 455.17,-24.12 458.12,-27.08 458.12,-30.04 458.12,-30.04 458.12,-35.96 458.12,-35.96 458.12,-38.92 455.17,-41.88 452.21,-41.88"/>
<text text-anchor="start" x="413.12" y="-29.32" font-family="Helvetica,sans-Serif" font-size="9.00">main.css</text>
</a>
</g>
</g>
<!-- @/components/Category/CategoryCard.vue -->
<g id="node4" class="node">
<title>@/components/Category/CategoryCard.vue</title>
<g id="a_node4"><a xlink:title="CategoryCard.vue">
<path fill="#41f083" stroke="black" d="M470.71,-529.88C470.71,-529.88 391.54,-529.88 391.54,-529.88 388.58,-529.88 385.62,-526.92 385.62,-523.96 385.62,-523.96 385.62,-518.04 385.62,-518.04 385.62,-515.08 388.58,-512.12 391.54,-512.12 391.54,-512.12 470.71,-512.12 470.71,-512.12 473.67,-512.12 476.62,-515.08 476.62,-518.04 476.62,-518.04 476.62,-523.96 476.62,-523.96 476.62,-526.92 473.67,-529.88 470.71,-529.88"/>
<text text-anchor="start" x="393.62" y="-517.33" font-family="Helvetica,sans-Serif" font-size="9.00">CategoryCard.vue</text>
</a>
</g>
</g>
<!-- @/components/Deals/DealCard.vue -->
<g id="node5" class="node">
<title>@/components/Deals/DealCard.vue</title>
<g id="a_node5"><a xlink:title="DealCard.vue">
<path fill="#41f083" stroke="black" d="M461.71,-675.88C461.71,-675.88 400.54,-675.88 400.54,-675.88 397.58,-675.88 394.62,-672.92 394.62,-669.96 394.62,-669.96 394.62,-664.04 394.62,-664.04 394.62,-661.08 397.58,-658.12 400.54,-658.12 400.54,-658.12 461.71,-658.12 461.71,-658.12 464.67,-658.12 467.62,-661.08 467.62,-664.04 467.62,-664.04 467.62,-669.96 467.62,-669.96 467.62,-672.92 464.67,-675.88 461.71,-675.88"/>
<text text-anchor="start" x="402.62" y="-663.33" font-family="Helvetica,sans-Serif" font-size="9.00">DealCard.vue</text>
</a>
</g>
</g>
<!-- @/components/Header/HeaderBar.vue -->
<g id="node6" class="node">
<title>@/components/Header/HeaderBar.vue</title>
<g id="a_node6"><a xlink:title="HeaderBar.vue">
<path fill="#41f083" stroke="black" d="M464.33,-469.88C464.33,-469.88 397.92,-469.88 397.92,-469.88 394.96,-469.88 392,-466.92 392,-463.96 392,-463.96 392,-458.04 392,-458.04 392,-455.08 394.96,-452.12 397.92,-452.12 397.92,-452.12 464.33,-452.12 464.33,-452.12 467.29,-452.12 470.25,-455.08 470.25,-458.04 470.25,-458.04 470.25,-463.96 470.25,-463.96 470.25,-466.92 467.29,-469.88 464.33,-469.88"/>
<text text-anchor="start" x="400" y="-457.32" font-family="Helvetica,sans-Serif" font-size="9.00">HeaderBar.vue</text>
</a>
</g>
</g>
<!-- @/components/Restaurants/RestaurantCard.vue -->
<g id="node7" class="node">
<title>@/components/Restaurants/RestaurantCard.vue</title>
<g id="a_node7"><a xlink:title="RestaurantCard.vue">
<path fill="#41f083" stroke="black" d="M474.46,-615.88C474.46,-615.88 387.79,-615.88 387.79,-615.88 384.83,-615.88 381.88,-612.92 381.88,-609.96 381.88,-609.96 381.88,-604.04 381.88,-604.04 381.88,-601.08 384.83,-598.12 387.79,-598.12 387.79,-598.12 474.46,-598.12 474.46,-598.12 477.42,-598.12 480.38,-601.08 480.38,-604.04 480.38,-604.04 480.38,-609.96 480.38,-609.96 480.38,-612.92 477.42,-615.88 474.46,-615.88"/>
<text text-anchor="start" x="389.88" y="-603.33" font-family="Helvetica,sans-Serif" font-size="9.00">RestaurantCard.vue</text>
</a>
</g>
</g>
<!-- @/components/Spinner.vue -->
<g id="node8" class="node">
<title>@/components/Spinner.vue</title>
<g id="a_node8"><a xlink:title="Spinner.vue">
<path fill="#41f083" stroke="black" d="M457.96,-581.88C457.96,-581.88 404.29,-581.88 404.29,-581.88 401.33,-581.88 398.38,-578.92 398.38,-575.96 398.38,-575.96 398.38,-570.04 398.38,-570.04 398.38,-567.08 401.33,-564.12 404.29,-564.12 404.29,-564.12 457.96,-564.12 457.96,-564.12 460.92,-564.12 463.88,-567.08 463.88,-570.04 463.88,-570.04 463.88,-575.96 463.88,-575.96 463.88,-578.92 460.92,-581.88 457.96,-581.88"/>
<text text-anchor="start" x="406.38" y="-569.33" font-family="Helvetica,sans-Serif" font-size="9.00">Spinner.vue</text>
</a>
</g>
</g>
<!-- @/layouts/MainLayout.vue -->
<g id="node9" class="node">
<title>@/layouts/MainLayout.vue</title>
<g id="a_node9"><a xlink:title="MainLayout.vue">
<path fill="#41f083" stroke="black" d="M465.83,-281.88C465.83,-281.88 396.42,-281.88 396.42,-281.88 393.46,-281.88 390.5,-278.92 390.5,-275.96 390.5,-275.96 390.5,-270.04 390.5,-270.04 390.5,-267.08 393.46,-264.12 396.42,-264.12 396.42,-264.12 465.83,-264.12 465.83,-264.12 468.79,-264.12 471.75,-267.08 471.75,-270.04 471.75,-270.04 471.75,-275.96 471.75,-275.96 471.75,-278.92 468.79,-281.88 465.83,-281.88"/>
<text text-anchor="start" x="398.5" y="-269.32" font-family="Helvetica,sans-Serif" font-size="9.00">MainLayout.vue</text>
</a>
</g>
</g>
<!-- @/stores/auth -->
<g id="node10" class="node">
<title>@/stores/auth</title>
<g id="a_node10"><a xlink:title="auth">
<path fill="#ffffcc" stroke="black" d="M452.21,-341.88C452.21,-341.88 410.04,-341.88 410.04,-341.88 407.08,-341.88 404.12,-338.92 404.12,-335.96 404.12,-335.96 404.12,-330.04 404.12,-330.04 404.12,-327.08 407.08,-324.12 410.04,-324.12 410.04,-324.12 452.21,-324.12 452.21,-324.12 455.17,-324.12 458.12,-327.08 458.12,-330.04 458.12,-330.04 458.12,-335.96 458.12,-335.96 458.12,-338.92 455.17,-341.88 452.21,-341.88"/>
<text text-anchor="start" x="422.12" y="-329.32" font-family="Helvetica,sans-Serif" font-size="9.00">auth</text>
</a>
</g>
</g>
<!-- @/stores/restaurants -->
<g id="node11" class="node">
<title>@/stores/restaurants</title>
<g id="a_node11"><a xlink:title="restaurants">
<path fill="#ffffcc" stroke="black" d="M456.08,-371.88C456.08,-371.88 406.17,-371.88 406.17,-371.88 403.21,-371.88 400.25,-368.92 400.25,-365.96 400.25,-365.96 400.25,-360.04 400.25,-360.04 400.25,-357.08 403.21,-354.12 406.17,-354.12 406.17,-354.12 456.08,-354.12 456.08,-354.12 459.04,-354.12 462,-357.08 462,-360.04 462,-360.04 462,-365.96 462,-365.96 462,-368.92 459.04,-371.88 456.08,-371.88"/>
<text text-anchor="start" x="408.25" y="-359.32" font-family="Helvetica,sans-Serif" font-size="9.00">restaurants</text>
</a>
</g>
</g>
<!-- @/stores/restaurants.js -->
<g id="node12" class="node">
<title>@/stores/restaurants.js</title>
<g id="a_node12"><a xlink:title="restaurants.js">
<path fill="#ffffcc" stroke="black" d="M460.58,-401.88C460.58,-401.88 401.67,-401.88 401.67,-401.88 398.71,-401.88 395.75,-398.92 395.75,-395.96 395.75,-395.96 395.75,-390.04 395.75,-390.04 395.75,-387.08 398.71,-384.12 401.67,-384.12 401.67,-384.12 460.58,-384.12 460.58,-384.12 463.54,-384.12 466.5,-387.08 466.5,-390.04 466.5,-390.04 466.5,-395.96 466.5,-395.96 466.5,-398.92 463.54,-401.88 460.58,-401.88"/>
<text text-anchor="start" x="403.75" y="-389.32" font-family="Helvetica,sans-Serif" font-size="9.00">restaurants.js</text>
</a>
</g>
</g>
<!-- @/views/AuthView.vue -->
<g id="node13" class="node">
<title>@/views/AuthView.vue</title>
<g id="a_node13"><a xlink:title="AuthView.vue">
<path fill="#41f083" stroke="black" d="M460.96,-131.88C460.96,-131.88 401.29,-131.88 401.29,-131.88 398.33,-131.88 395.38,-128.92 395.38,-125.96 395.38,-125.96 395.38,-120.04 395.38,-120.04 395.38,-117.08 398.33,-114.12 401.29,-114.12 401.29,-114.12 460.96,-114.12 460.96,-114.12 463.92,-114.12 466.88,-117.08 466.88,-120.04 466.88,-120.04 466.88,-125.96 466.88,-125.96 466.88,-128.92 463.92,-131.88 460.96,-131.88"/>
<text text-anchor="start" x="403.38" y="-119.33" font-family="Helvetica,sans-Serif" font-size="9.00">AuthView.vue</text>
</a>
</g>
</g>
<!-- @/views/CartView.vue -->
<g id="node14" class="node">
<title>@/views/CartView.vue</title>
<g id="a_node14"><a xlink:title="CartView.vue">
<path fill="#41f083" stroke="black" d="M460.21,-101.88C460.21,-101.88 402.04,-101.88 402.04,-101.88 399.08,-101.88 396.12,-98.92 396.12,-95.96 396.12,-95.96 396.12,-90.04 396.12,-90.04 396.12,-87.08 399.08,-84.12 402.04,-84.12 402.04,-84.12 460.21,-84.12 460.21,-84.12 463.17,-84.12 466.12,-87.08 466.12,-90.04 466.12,-90.04 466.12,-95.96 466.12,-95.96 466.12,-98.92 463.17,-101.88 460.21,-101.88"/>
<text text-anchor="start" x="404.12" y="-89.33" font-family="Helvetica,sans-Serif" font-size="9.00">CartView.vue</text>
</a>
</g>
</g>
<!-- @/views/DealsView.vue -->
<g id="node15" class="node">
<title>@/views/DealsView.vue</title>
<g id="a_node15"><a xlink:title="DealsView.vue">
<path fill="#41f083" stroke="black" d="M463.58,-221.88C463.58,-221.88 398.67,-221.88 398.67,-221.88 395.71,-221.88 392.75,-218.92 392.75,-215.96 392.75,-215.96 392.75,-210.04 392.75,-210.04 392.75,-207.08 395.71,-204.12 398.67,-204.12 398.67,-204.12 463.58,-204.12 463.58,-204.12 466.54,-204.12 469.5,-207.08 469.5,-210.04 469.5,-210.04 469.5,-215.96 469.5,-215.96 469.5,-218.92 466.54,-221.88 463.58,-221.88"/>
<text text-anchor="start" x="400.75" y="-209.32" font-family="Helvetica,sans-Serif" font-size="9.00">DealsView.vue</text>
</a>
</g>
</g>
<!-- @/views/OrderListView.vue -->
<g id="node16" class="node">
<title>@/views/OrderListView.vue</title>
<g id="a_node16"><a xlink:title="OrderListView.vue">
<path fill="#41f083" stroke="black" d="M470.33,-191.88C470.33,-191.88 391.92,-191.88 391.92,-191.88 388.96,-191.88 386,-188.92 386,-185.96 386,-185.96 386,-180.04 386,-180.04 386,-177.08 388.96,-174.12 391.92,-174.12 391.92,-174.12 470.33,-174.12 470.33,-174.12 473.29,-174.12 476.25,-177.08 476.25,-180.04 476.25,-180.04 476.25,-185.96 476.25,-185.96 476.25,-188.92 473.29,-191.88 470.33,-191.88"/>
<text text-anchor="start" x="394" y="-179.32" font-family="Helvetica,sans-Serif" font-size="9.00">OrderListView.vue</text>
</a>
</g>
</g>
<!-- @/views/SingleRestaurantView.vue -->
<g id="node17" class="node">
<title>@/views/SingleRestaurantView.vue</title>
<g id="a_node17"><a xlink:title="SingleRestaurantView.vue">
<path fill="#41f083" stroke="black" d="M487.21,-161.88C487.21,-161.88 375.04,-161.88 375.04,-161.88 372.08,-161.88 369.12,-158.92 369.12,-155.96 369.12,-155.96 369.12,-150.04 369.12,-150.04 369.12,-147.08 372.08,-144.12 375.04,-144.12 375.04,-144.12 487.21,-144.12 487.21,-144.12 490.17,-144.12 493.12,-147.08 493.12,-150.04 493.12,-150.04 493.12,-155.96 493.12,-155.96 493.12,-158.92 490.17,-161.88 487.21,-161.88"/>
<text text-anchor="start" x="377.12" y="-149.32" font-family="Helvetica,sans-Serif" font-size="9.00">SingleRestaurantView.vue</text>
</a>
</g>
</g>
<!-- jest.config.js -->
<g id="node18" class="node">
<title>jest.config.js</title>
<g id="a_node18"><a xlink:href="jest.config.js" xlink:title="no&#45;orphans">
<path fill="#ccffcc" stroke="orange" d="M91.83,-1369.88C91.83,-1369.88 37.42,-1369.88 37.42,-1369.88 34.46,-1369.88 31.5,-1366.92 31.5,-1363.96 31.5,-1363.96 31.5,-1358.04 31.5,-1358.04 31.5,-1355.08 34.46,-1352.12 37.42,-1352.12 37.42,-1352.12 91.83,-1352.12 91.83,-1352.12 94.79,-1352.12 97.75,-1355.08 97.75,-1358.04 97.75,-1358.04 97.75,-1363.96 97.75,-1363.96 97.75,-1366.92 94.79,-1369.88 91.83,-1369.88"/>
<text text-anchor="middle" x="64.62" y="-1357.33" font-family="Helvetica,sans-Serif" font-size="9.00" fill="orange">jest.config.js</text>
</a>
</g>
</g>
<!-- src/App.vue -->
<g id="node19" class="node">
<title>src/App.vue</title>
<g id="a_node19"><a xlink:href="src/App.vue" xlink:title="App.vue">
<path fill="#41f083" stroke="black" d="M183.21,-873.88C183.21,-873.88 141.04,-873.88 141.04,-873.88 138.08,-873.88 135.12,-870.92 135.12,-867.96 135.12,-867.96 135.12,-862.04 135.12,-862.04 135.12,-859.08 138.08,-856.12 141.04,-856.12 141.04,-856.12 183.21,-856.12 183.21,-856.12 186.17,-856.12 189.12,-859.08 189.12,-862.04 189.12,-862.04 189.12,-867.96 189.12,-867.96 189.12,-870.92 186.17,-873.88 183.21,-873.88"/>
<text text-anchor="start" x="145.25" y="-861.33" font-family="Helvetica,sans-Serif" font-size="9.00">App.vue</text>
</a>
</g>
</g>
<!-- src/App.vue&#45;&gt;@/stores/auth -->
<g id="edge1" class="edge">
<title>src/App.vue&#45;&gt;@/stores/auth</title>
<g id="a_edge1"><a xlink:title="not&#45;to&#45;unresolvable">
<path fill="none" stroke="red" stroke-width="2" d="M189.62,-857.5C192.48,-855.76 195.09,-853.63 197.12,-851 213.05,-830.42 196.33,-817.49 205.12,-793 245.2,-681.45 310.7,-679.42 345.12,-566 352.16,-542.81 337.37,-366.42 353.12,-348 363.34,-336.06 379.98,-331.84 395.19,-330.8"/>
<polygon fill="red" stroke="red" stroke-width="2" points="394.96,-332.9 400.89,-330.62 394.82,-328.71 394.96,-332.9"/>
</a>
</g>
<text text-anchor="middle" x="305.38" y="-557.45" font-family="Helvetica,sans-Serif" font-size="9.00" fill="red">not&#45;to&#45;unresolvable</text>
</g>
<!-- src/components/Buttons/ButtonCustom.vue -->
<g id="node20" class="node">
<title>src/components/Buttons/ButtonCustom.vue</title>
<g id="a_node20"><a xlink:href="src/components/Buttons/ButtonCustom.vue" xlink:title="no&#45;orphans">
<path fill="#ccffcc" stroke="orange" d="M470.71,-1235.88C470.71,-1235.88 391.54,-1235.88 391.54,-1235.88 388.58,-1235.88 385.62,-1232.92 385.62,-1229.96 385.62,-1229.96 385.62,-1224.04 385.62,-1224.04 385.62,-1221.08 388.58,-1218.12 391.54,-1218.12 391.54,-1218.12 470.71,-1218.12 470.71,-1218.12 473.67,-1218.12 476.62,-1221.08 476.62,-1224.04 476.62,-1224.04 476.62,-1229.96 476.62,-1229.96 476.62,-1232.92 473.67,-1235.88 470.71,-1235.88"/>
<text text-anchor="start" x="393.62" y="-1223.33" font-family="Helvetica,sans-Serif" font-size="9.00" fill="orange">ButtonCustom.vue</text>
</a>
</g>
</g>
<!-- src/components/Cards/ItemCard.vue -->
<g id="node21" class="node">
<title>src/components/Cards/ItemCard.vue</title>
<g id="a_node21"><a xlink:href="src/components/Cards/ItemCard.vue" xlink:title="ItemCard.vue">
<path fill="#41f083" stroke="black" d="M460.58,-1175.88C460.58,-1175.88 401.67,-1175.88 401.67,-1175.88 398.71,-1175.88 395.75,-1172.92 395.75,-1169.96 395.75,-1169.96 395.75,-1164.04 395.75,-1164.04 395.75,-1161.08 398.71,-1158.12 401.67,-1158.12 401.67,-1158.12 460.58,-1158.12 460.58,-1158.12 463.54,-1158.12 466.5,-1161.08 466.5,-1164.04 466.5,-1164.04 466.5,-1169.96 466.5,-1169.96 466.5,-1172.92 463.54,-1175.88 460.58,-1175.88"/>
<text text-anchor="start" x="403.75" y="-1163.33" font-family="Helvetica,sans-Serif" font-size="9.00">ItemCard.vue</text>
</a>
</g>
</g>
<!-- src/components/Cards/ItemCard.vue&#45;&gt;@/stores/restaurants -->
<g id="edge3" class="edge">
<title>src/components/Cards/ItemCard.vue&#45;&gt;@/stores/restaurants</title>
<g id="a_edge3"><a xlink:title="not&#45;to&#45;unresolvable">
<path fill="none" stroke="red" stroke-width="2" d="M395.65,-1166.98C376.17,-1164.75 354.84,-1157.86 349.12,-1139 346.09,-1128.96 346.09,-394.04 349.12,-384 354.29,-366.96 372.93,-361.34 391.14,-360.16"/>
<polygon fill="red" stroke="red" stroke-width="2" points="391.02,-362.26 396.96,-359.99 390.9,-358.06 391.02,-362.26"/>
</a>
</g>
<text text-anchor="middle" x="307.1" y="-754.59" font-family="Helvetica,sans-Serif" font-size="9.00" fill="red">not&#45;to&#45;unresolvable</text>
</g>
<!-- src/stores/auth.js -->
<g id="node22" class="node">
<title>src/stores/auth.js</title>
<g id="a_node22"><a xlink:href="src/stores/auth.js" xlink:title="auth.js">
<path fill="#ffffcc" stroke="black" d="M666.46,-841.88C666.46,-841.88 624.29,-841.88 624.29,-841.88 621.33,-841.88 618.38,-838.92 618.38,-835.96 618.38,-835.96 618.38,-830.04 618.38,-830.04 618.38,-827.08 621.33,-824.12 624.29,-824.12 624.29,-824.12 666.46,-824.12 666.46,-824.12 669.42,-824.12 672.38,-827.08 672.38,-830.04 672.38,-830.04 672.38,-835.96 672.38,-835.96 672.38,-838.92 669.42,-841.88 666.46,-841.88"/>
<text text-anchor="start" x="631.88" y="-829.33" font-family="Helvetica,sans-Serif" font-size="9.00">auth.js</text>
</a>
</g>
</g>
<!-- src/components/Cards/ItemCard.vue&#45;&gt;src/stores/auth.js -->
<g id="edge2" class="edge">
<title>src/components/Cards/ItemCard.vue&#45;&gt;src/stores/auth.js</title>
<path fill="none" stroke="#000000" stroke-width="2" stroke-opacity="0.200000" d="M466.66,-1165.87C482.09,-1163.46 499.04,-1157.76 509.12,-1145 521.4,-1129.47 507.94,-984.54 517.12,-967 541.29,-920.86 576.52,-935.59 610.38,-896 622.17,-882.21 631.57,-863.65 637.47,-850.26"/>
<polygon fill="#000000" fill-opacity="0.200000" stroke="#000000" stroke-width="2" stroke-opacity="0.200000" points="639.25,-851.43 639.66,-845.09 635.39,-849.8 639.25,-851.43"/>
</g>
<!-- src/components/Category/CategoryCard.vue -->
<g id="node23" class="node">
<title>src/components/Category/CategoryCard.vue</title>
<g id="a_node23"><a xlink:href="src/components/Category/CategoryCard.vue" xlink:title="no&#45;orphans">
<path fill="#ccffcc" stroke="orange" d="M470.71,-1115.88C470.71,-1115.88 391.54,-1115.88 391.54,-1115.88 388.58,-1115.88 385.62,-1112.92 385.62,-1109.96 385.62,-1109.96 385.62,-1104.04 385.62,-1104.04 385.62,-1101.08 388.58,-1098.12 391.54,-1098.12 391.54,-1098.12 470.71,-1098.12 470.71,-1098.12 473.67,-1098.12 476.62,-1101.08 476.62,-1104.04 476.62,-1104.04 476.62,-1109.96 476.62,-1109.96 476.62,-1112.92 473.67,-1115.88 470.71,-1115.88"/>
<text text-anchor="start" x="393.62" y="-1103.33" font-family="Helvetica,sans-Serif" font-size="9.00" fill="orange">CategoryCard.vue</text>
</a>
</g>
</g>
<!-- src/components/Deals/DealCard.vue -->
<g id="node24" class="node">
<title>src/components/Deals/DealCard.vue</title>
<g id="a_node24"><a xlink:href="src/components/Deals/DealCard.vue" xlink:title="no&#45;orphans">
<path fill="#ccffcc" stroke="orange" d="M461.71,-1055.88C461.71,-1055.88 400.54,-1055.88 400.54,-1055.88 397.58,-1055.88 394.62,-1052.92 394.62,-1049.96 394.62,-1049.96 394.62,-1044.04 394.62,-1044.04 394.62,-1041.08 397.58,-1038.12 400.54,-1038.12 400.54,-1038.12 461.71,-1038.12 461.71,-1038.12 464.67,-1038.12 467.62,-1041.08 467.62,-1044.04 467.62,-1044.04 467.62,-1049.96 467.62,-1049.96 467.62,-1052.92 464.67,-1055.88 461.71,-1055.88"/>
<text text-anchor="start" x="402.62" y="-1043.33" font-family="Helvetica,sans-Serif" font-size="9.00" fill="orange">DealCard.vue</text>
</a>
</g>
</g>
<!-- src/components/Hashtags/Hashtag.vue -->
<g id="node25" class="node">
<title>src/components/Hashtags/Hashtag.vue</title>
<g id="a_node25"><a xlink:href="src/components/Hashtags/Hashtag.vue" xlink:title="Hashtag.vue">
<path fill="#41f083" stroke="black" d="M588.46,-995.88C588.46,-995.88 532.54,-995.88 532.54,-995.88 529.58,-995.88 526.62,-992.92 526.62,-989.96 526.62,-989.96 526.62,-984.04 526.62,-984.04 526.62,-981.08 529.58,-978.12 532.54,-978.12 532.54,-978.12 588.46,-978.12 588.46,-978.12 591.42,-978.12 594.38,-981.08 594.38,-984.04 594.38,-984.04 594.38,-989.96 594.38,-989.96 594.38,-992.92 591.42,-995.88 588.46,-995.88"/>
<text text-anchor="start" x="534.62" y="-983.33" font-family="Helvetica,sans-Serif" font-size="9.00">Hashtag.vue</text>
</a>
</g>
</g>
<!-- src/components/Header/HeaderBar.vue -->
<g id="node26" class="node">
<title>src/components/Header/HeaderBar.vue</title>
<g id="a_node26"><a xlink:href="src/components/Header/HeaderBar.vue" xlink:title="HeaderBar.vue">
<path fill="#41f083" stroke="black" d="M464.33,-935.88C464.33,-935.88 397.92,-935.88 397.92,-935.88 394.96,-935.88 392,-932.92 392,-929.96 392,-929.96 392,-924.04 392,-924.04 392,-921.08 394.96,-918.12 397.92,-918.12 397.92,-918.12 464.33,-918.12 464.33,-918.12 467.29,-918.12 470.25,-921.08 470.25,-924.04 470.25,-924.04 470.25,-929.96 470.25,-929.96 470.25,-932.92 467.29,-935.88 464.33,-935.88"/>
<text text-anchor="start" x="400" y="-923.33" font-family="Helvetica,sans-Serif" font-size="9.00">HeaderBar.vue</text>
</a>
</g>
</g>
<!-- src/components/Header/HeaderBar.vue&#45;&gt;src/stores/auth.js -->
<g id="edge4" class="edge">
<title>src/components/Header/HeaderBar.vue&#45;&gt;src/stores/auth.js</title>
<path fill="none" stroke="#000000" stroke-width="2" stroke-opacity="0.200000" d="M470.72,-922.03C509.09,-915.53 568.17,-901.21 610.38,-871 618.8,-864.97 626.62,-856.52 632.64,-849.11"/>
<polygon fill="#000000" fill-opacity="0.200000" stroke="#000000" stroke-width="2" stroke-opacity="0.200000" points="634.14,-850.61 636.15,-844.58 630.82,-848.03 634.14,-850.61"/>
</g>
<!-- src/stores/restaurants.js -->
<g id="node27" class="node">
<title>src/stores/restaurants.js</title>
<g id="a_node27"><a xlink:href="src/stores/restaurants.js" xlink:title="restaurants.js">
<path fill="#ffffcc" stroke="black" d="M589.96,-841.88C589.96,-841.88 531.04,-841.88 531.04,-841.88 528.08,-841.88 525.12,-838.92 525.12,-835.96 525.12,-835.96 525.12,-830.04 525.12,-830.04 525.12,-827.08 528.08,-824.12 531.04,-824.12 531.04,-824.12 589.96,-824.12 589.96,-824.12 592.92,-824.12 595.88,-827.08 595.88,-830.04 595.88,-830.04 595.88,-835.96 595.88,-835.96 595.88,-838.92 592.92,-841.88 589.96,-841.88"/>
<text text-anchor="start" x="533.12" y="-829.33" font-family="Helvetica,sans-Serif" font-size="9.00">restaurants.js</text>
</a>
</g>
</g>
<!-- src/components/Header/HeaderBar.vue&#45;&gt;src/stores/restaurants.js -->
<g id="edge5" class="edge">
<title>src/components/Header/HeaderBar.vue&#45;&gt;src/stores/restaurants.js</title>
<path fill="none" stroke="#000000" stroke-width="2" stroke-opacity="0.200000" d="M470.67,-927.05C483.83,-925.44 498.01,-921.76 509.12,-914 515,-909.9 513.43,-906.14 517.12,-900 527.58,-882.62 540.05,-863.04 548.74,-849.56"/>
<polygon fill="#000000" fill-opacity="0.200000" stroke="#000000" stroke-width="2" stroke-opacity="0.200000" points="550.47,-850.74 551.97,-844.56 546.95,-848.46 550.47,-850.74"/>
</g>
<!-- src/stores/restaurants.js&#45;&gt;src/stores/auth.js -->
<g id="edge19" class="edge">
<title>src/stores/restaurants.js&#45;&gt;src/stores/auth.js</title>
<path fill="none" stroke="#000000" stroke-width="2" stroke-opacity="0.200000" d="M596.17,-833C600.49,-833 604.91,-833 609.23,-833"/>
<polygon fill="#000000" fill-opacity="0.200000" stroke="#000000" stroke-width="2" stroke-opacity="0.200000" points="608.89,-835.1 614.89,-833 608.89,-830.9 608.89,-835.1"/>
</g>
<!-- src/components/Restaurants/RestaurantCard.vue -->
<g id="node28" class="node">
<title>src/components/Restaurants/RestaurantCard.vue</title>
<g id="a_node28"><a xlink:href="src/components/Restaurants/RestaurantCard.vue" xlink:title="RestaurantCard.vue">
<path fill="#41f083" stroke="black" d="M474.46,-995.88C474.46,-995.88 387.79,-995.88 387.79,-995.88 384.83,-995.88 381.88,-992.92 381.88,-989.96 381.88,-989.96 381.88,-984.04 381.88,-984.04 381.88,-981.08 384.83,-978.12 387.79,-978.12 387.79,-978.12 474.46,-978.12 474.46,-978.12 477.42,-978.12 480.38,-981.08 480.38,-984.04 480.38,-984.04 480.38,-989.96 480.38,-989.96 480.38,-992.92 477.42,-995.88 474.46,-995.88"/>
<text text-anchor="start" x="389.88" y="-983.33" font-family="Helvetica,sans-Serif" font-size="9.00">RestaurantCard.vue</text>
</a>
</g>
</g>
<!-- src/components/Restaurants/RestaurantCard.vue&#45;&gt;src/components/Hashtags/Hashtag.vue -->
<g id="edge6" class="edge">
<title>src/components/Restaurants/RestaurantCard.vue&#45;&gt;src/components/Hashtags/Hashtag.vue</title>
<path fill="none" stroke="#000000" stroke-width="2" stroke-opacity="0.200000" d="M480.64,-987C492.74,-987 505.62,-987 517.39,-987"/>
<polygon fill="#000000" fill-opacity="0.200000" stroke="#000000" stroke-width="2" stroke-opacity="0.200000" points="517.11,-989.1 523.11,-987 517.11,-984.9 517.11,-989.1"/>
</g>
<!-- src/components/Spinner.vue -->
<g id="node29" class="node">
<title>src/components/Spinner.vue</title>
<g id="a_node29"><a xlink:href="src/components/Spinner.vue" xlink:title="Spinner.vue">
<path fill="#41f083" stroke="black" d="M457.96,-901.88C457.96,-901.88 404.29,-901.88 404.29,-901.88 401.33,-901.88 398.38,-898.92 398.38,-895.96 398.38,-895.96 398.38,-890.04 398.38,-890.04 398.38,-887.08 401.33,-884.12 404.29,-884.12 404.29,-884.12 457.96,-884.12 457.96,-884.12 460.92,-884.12 463.88,-887.08 463.88,-890.04 463.88,-890.04 463.88,-895.96 463.88,-895.96 463.88,-898.92 460.92,-901.88 457.96,-901.88"/>
<text text-anchor="start" x="406.38" y="-889.33" font-family="Helvetica,sans-Serif" font-size="9.00">Spinner.vue</text>
</a>
</g>
</g>
<!-- src/layouts/MainLayout.vue -->
<g id="node30" class="node">
<title>src/layouts/MainLayout.vue</title>
<g id="a_node30"><a xlink:href="src/layouts/MainLayout.vue" xlink:title="MainLayout.vue">
<path fill="#41f083" stroke="black" d="M99.33,-821.88C99.33,-821.88 29.92,-821.88 29.92,-821.88 26.96,-821.88 24,-818.92 24,-815.96 24,-815.96 24,-810.04 24,-810.04 24,-807.08 26.96,-804.12 29.92,-804.12 29.92,-804.12 99.33,-804.12 99.33,-804.12 102.29,-804.12 105.25,-807.08 105.25,-810.04 105.25,-810.04 105.25,-815.96 105.25,-815.96 105.25,-818.92 102.29,-821.88 99.33,-821.88"/>
<text text-anchor="start" x="32" y="-809.33" font-family="Helvetica,sans-Serif" font-size="9.00">MainLayout.vue</text>
</a>
</g>
</g>
<!-- src/layouts/MainLayout.vue&#45;&gt;@/components/Header/HeaderBar.vue -->
<g id="edge7" class="edge">
<title>src/layouts/MainLayout.vue&#45;&gt;@/components/Header/HeaderBar.vue</title>
<g id="a_edge7"><a xlink:title="not&#45;to&#45;unresolvable">
<path fill="none" stroke="red" stroke-width="2" d="M72.22,-803.76C101.33,-763.46 222.63,-600.75 353.12,-501 367.26,-490.19 384.75,-480.84 399.48,-473.91"/>
<polygon fill="red" stroke="red" stroke-width="2" points="400.01,-475.97 404.59,-471.57 398.26,-472.15 400.01,-475.97"/>
</a>
</g>
<text text-anchor="middle" x="183.09" y="-612.59" font-family="Helvetica,sans-Serif" font-size="9.00" fill="red">not&#45;to&#45;unresolvable</text>
</g>
<!-- src/main.js -->
<g id="node31" class="node">
<title>src/main.js</title>
<g id="a_node31"><a xlink:href="src/main.js" xlink:title="main.js">
<path fill="#ffffcc" stroke="black" d="M85.71,-873.88C85.71,-873.88 43.54,-873.88 43.54,-873.88 40.58,-873.88 37.62,-870.92 37.62,-867.96 37.62,-867.96 37.62,-862.04 37.62,-862.04 37.62,-859.08 40.58,-856.12 43.54,-856.12 43.54,-856.12 85.71,-856.12 85.71,-856.12 88.67,-856.12 91.62,-859.08 91.62,-862.04 91.62,-862.04 91.62,-867.96 91.62,-867.96 91.62,-870.92 88.67,-873.88 85.71,-873.88"/>
<text text-anchor="start" x="50" y="-861.33" font-family="Helvetica,sans-Serif" font-size="9.00">main.js</text>
</a>
</g>
</g>
<!-- src/main.js&#45;&gt;@/assets/main.css -->
<g id="edge10" class="edge">
<title>src/main.js&#45;&gt;@/assets/main.css</title>
<g id="a_edge10"><a xlink:title="not&#45;to&#45;unresolvable">
<path fill="none" stroke="red" stroke-width="2" d="M91.97,-864.1C101.84,-862.39 112.31,-858.68 119.12,-851 127.76,-841.27 124.93,-805.83 127.12,-793 183.62,-462.4 123.97,-317.9 353.12,-73 364.76,-60.56 381.14,-51.31 395.8,-44.85"/>
<polygon fill="red" stroke="red" stroke-width="2" points="396.2,-46.96 400.93,-42.72 394.59,-43.08 396.2,-46.96"/>
</a>
</g>
<text text-anchor="middle" x="128.84" y="-432.76" font-family="Helvetica,sans-Serif" font-size="9.00" fill="red">not&#45;to&#45;unresolvable</text>
</g>
<!-- src/main.js&#45;&gt;src/App.vue -->
<g id="edge8" class="edge">
<title>src/main.js&#45;&gt;src/App.vue</title>
<path fill="none" stroke="#000000" stroke-width="2" stroke-opacity="0.200000" d="M91.97,-865C102.52,-865 114.81,-865 126.09,-865"/>
<polygon fill="#000000" fill-opacity="0.200000" stroke="#000000" stroke-width="2" stroke-opacity="0.200000" points="125.84,-867.1 131.84,-865 125.84,-862.9 125.84,-867.1"/>
</g>
<!-- src/router/index.js -->
<g id="node32" class="node">
<title>src/router/index.js</title>
<g id="a_node32"><a xlink:href="src/router/index.js" xlink:title="index.js">
<path fill="#ffffcc" stroke="black" d="M183.21,-821.88C183.21,-821.88 141.04,-821.88 141.04,-821.88 138.08,-821.88 135.12,-818.92 135.12,-815.96 135.12,-815.96 135.12,-810.04 135.12,-810.04 135.12,-807.08 138.08,-804.12 141.04,-804.12 141.04,-804.12 183.21,-804.12 183.21,-804.12 186.17,-804.12 189.12,-807.08 189.12,-810.04 189.12,-810.04 189.12,-815.96 189.12,-815.96 189.12,-818.92 186.17,-821.88 183.21,-821.88"/>
<text text-anchor="start" x="146.38" y="-809.33" font-family="Helvetica,sans-Serif" font-size="9.00">index.js</text>
</a>
</g>
</g>
<!-- src/main.js&#45;&gt;src/router/index.js -->
<g id="edge9" class="edge">
<title>src/main.js&#45;&gt;src/router/index.js</title>
<path fill="none" stroke="#000000" stroke-width="2" stroke-opacity="0.200000" d="M91.87,-863.37C101.49,-861.54 111.81,-857.93 119.12,-851 127.59,-842.98 119.11,-834.47 127.12,-826 127.26,-825.86 127.4,-825.71 127.54,-825.57"/>
<polygon fill="#000000" fill-opacity="0.200000" stroke="#000000" stroke-width="2" stroke-opacity="0.200000" points="128.72,-827.31 132.3,-822.05 126.22,-823.93 128.72,-827.31"/>
</g>
<!-- src/router/index.js&#45;&gt;@/layouts/MainLayout.vue -->
<g id="edge13" class="edge">
<title>src/router/index.js&#45;&gt;@/layouts/MainLayout.vue</title>
<g id="a_edge13"><a xlink:title="not&#45;to&#45;unresolvable">
<path fill="none" stroke="red" stroke-width="2" d="M165.27,-803.89C171.17,-778.64 187.76,-705.54 197.12,-644 199.71,-626.99 193.5,-579.68 205.12,-567 247.94,-520.29 303.93,-588.15 345.12,-540 361.53,-520.82 339.65,-334.34 353.12,-313 360.99,-300.56 374.07,-291.78 387.23,-285.69"/>
<polygon fill="red" stroke="red" stroke-width="2" points="387.9,-287.69 392.61,-283.42 386.27,-283.82 387.9,-287.69"/>
</a>
</g>
<text text-anchor="middle" x="238.28" y="-545.97" font-family="Helvetica,sans-Serif" font-size="9.00" fill="red">not&#45;to&#45;unresolvable</text>
</g>
<!-- src/router/index.js&#45;&gt;@/views/AuthView.vue -->
<g id="edge14" class="edge">
<title>src/router/index.js&#45;&gt;@/views/AuthView.vue</title>
<g id="a_edge14"><a xlink:title="not&#45;to&#45;unresolvable">
<path fill="none" stroke="red" stroke-width="2" stroke-dasharray="5,2" d="M165.47,-803.92C171.85,-778.74 189.59,-705.79 197.12,-644 198.34,-634.01 198.55,-470.62 205.12,-463 246.54,-415.04 304.13,-484.32 345.12,-436 366.55,-410.74 331.72,-163.28 353.12,-138 361.35,-128.29 373.83,-123.67 386.36,-121.72"/>
<polygon fill="red" stroke="red" stroke-width="2" points="386.25,-123.84 391.98,-121.09 385.79,-119.67 386.25,-123.84"/>
</a>
</g>
<text text-anchor="middle" x="243.05" y="-442.66" font-family="Helvetica,sans-Serif" font-size="9.00" fill="red">not&#45;to&#45;unresolvable</text>
</g>
<!-- src/router/index.js&#45;&gt;@/views/CartView.vue -->
<g id="edge15" class="edge">
<title>src/router/index.js&#45;&gt;@/views/CartView.vue</title>
<g id="a_edge15"><a xlink:title="not&#45;to&#45;unresolvable">
<path fill="none" stroke="red" stroke-width="2" stroke-dasharray="5,2" d="M165.49,-803.92C171.92,-778.75 189.76,-705.81 197.12,-644 198.49,-632.57 197.63,-445.73 205.12,-437 246.4,-388.92 304.14,-458.33 345.12,-410 366.84,-384.4 331.44,-133.62 353.12,-108 361.49,-98.12 374.26,-93.51 387.01,-91.61"/>
<polygon fill="red" stroke="red" stroke-width="2" points="387.02,-93.73 392.77,-91.02 386.58,-89.55 387.02,-93.73"/>
</a>
</g>
<text text-anchor="middle" x="245.32" y="-417.09" font-family="Helvetica,sans-Serif" font-size="9.00" fill="red">not&#45;to&#45;unresolvable</text>
</g>
<!-- src/router/index.js&#45;&gt;@/views/DealsView.vue -->
<g id="edge16" class="edge">
<title>src/router/index.js&#45;&gt;@/views/DealsView.vue</title>
<g id="a_edge16"><a xlink:title="not&#45;to&#45;unresolvable">
<path fill="none" stroke="red" stroke-width="2" stroke-dasharray="5,2" d="M165.36,-803.91C171.47,-778.69 188.56,-705.66 197.12,-644 198.7,-632.63 197.48,-549.56 205.12,-541 247.33,-493.73 304.04,-562.24 345.12,-514 363.94,-491.91 337.68,-277.56 353.12,-253 360.89,-240.64 373.81,-231.91 386.87,-225.83"/>
<polygon fill="red" stroke="red" stroke-width="2" points="387.49,-227.85 392.19,-223.56 385.84,-223.98 387.49,-227.85"/>
</a>
</g>
<text text-anchor="middle" x="237.52" y="-519.68" font-family="Helvetica,sans-Serif" font-size="9.00" fill="red">not&#45;to&#45;unresolvable</text>
</g>
<!-- src/router/index.js&#45;&gt;@/views/OrderListView.vue -->
<g id="edge17" class="edge">
<title>src/router/index.js&#45;&gt;@/views/OrderListView.vue</title>
<g id="a_edge17"><a xlink:title="not&#45;to&#45;unresolvable">
<path fill="none" stroke="red" stroke-width="2" stroke-dasharray="5,2" d="M165.41,-803.91C171.65,-778.71 189.04,-705.72 197.12,-644 198.99,-629.76 195.64,-525.79 205.12,-515 246.96,-467.41 304.11,-536.31 345.12,-488 365.99,-463.43 332.29,-222.59 353.12,-198 359.33,-190.68 367.95,-186.25 377.18,-183.68"/>
<polygon fill="red" stroke="red" stroke-width="2" points="377.41,-185.78 382.83,-182.45 376.52,-181.68 377.41,-185.78"/>
</a>
</g>
<text text-anchor="middle" x="235.76" y="-493.23" font-family="Helvetica,sans-Serif" font-size="9.00" fill="red">not&#45;to&#45;unresolvable</text>
</g>
<!-- src/router/index.js&#45;&gt;@/views/SingleRestaurantView.vue -->
<g id="edge18" class="edge">
<title>src/router/index.js&#45;&gt;@/views/SingleRestaurantView.vue</title>
<g id="a_edge18"><a xlink:title="not&#45;to&#45;unresolvable">
<path fill="none" stroke="red" stroke-width="2" stroke-dasharray="5,2" d="M165.44,-803.92C171.77,-778.73 189.36,-705.76 197.12,-644 199.28,-626.89 193.81,-502.01 205.12,-489 246.71,-441.19 304.12,-510.31 345.12,-462 366.27,-437.08 332,-192.93 353.12,-168 355.48,-165.22 358.19,-162.85 361.15,-160.84"/>
<polygon fill="red" stroke="red" stroke-width="2" points="362.05,-162.74 366.31,-158.03 360.04,-159.06 362.05,-162.74"/>
</a>
</g>
<text text-anchor="middle" x="228.66" y="-465.68" font-family="Helvetica,sans-Serif" font-size="9.00" fill="red">not&#45;to&#45;unresolvable</text>
</g>
<!-- src/router/index.js&#45;&gt;src/stores/auth.js -->
<g id="edge11" class="edge">
<title>src/router/index.js&#45;&gt;src/stores/auth.js</title>
<path fill="none" stroke="#000000" stroke-width="2" stroke-opacity="0.200000" d="M189.52,-819.32C192.48,-821.04 195.14,-823.22 197.12,-826 212.3,-847.27 186.34,-1042.84 205.12,-1061 249.86,-1104.24 300.2,-1104.05 345.12,-1061 360.22,-1046.53 338.75,-888.18 353.12,-873 363,-862.57 596.48,-851.64 610.38,-848 612.83,-847.36 615.34,-846.56 617.82,-845.66"/>
<polygon fill="#000000" fill-opacity="0.200000" stroke="#000000" stroke-width="2" stroke-opacity="0.200000" points="618.46,-847.67 623.25,-843.48 616.89,-843.77 618.46,-847.67"/>
</g>
<!-- src/views/RestaurantsView.vue -->
<g id="node33" class="node">
<title>src/views/RestaurantsView.vue</title>
<g id="a_node33"><a xlink:href="src/views/RestaurantsView.vue" xlink:title="RestaurantsView.vue">
<path fill="#41f083" stroke="black" d="M320.33,-821.88C320.33,-821.88 229.92,-821.88 229.92,-821.88 226.96,-821.88 224,-818.92 224,-815.96 224,-815.96 224,-810.04 224,-810.04 224,-807.08 226.96,-804.12 229.92,-804.12 229.92,-804.12 320.33,-804.12 320.33,-804.12 323.29,-804.12 326.25,-807.08 326.25,-810.04 326.25,-810.04 326.25,-815.96 326.25,-815.96 326.25,-818.92 323.29,-821.88 320.33,-821.88"/>
<text text-anchor="start" x="232" y="-809.33" font-family="Helvetica,sans-Serif" font-size="9.00">RestaurantsView.vue</text>
</a>
</g>
</g>
<!-- src/router/index.js&#45;&gt;src/views/RestaurantsView.vue -->
<g id="edge12" class="edge">
<title>src/router/index.js&#45;&gt;src/views/RestaurantsView.vue</title>
<path fill="none" stroke="#000000" stroke-width="2" stroke-dasharray="5,2" stroke-opacity="0.200000" d="M189.43,-813C197.12,-813 205.86,-813 214.74,-813"/>
<polygon fill="#000000" fill-opacity="0.200000" stroke="#000000" stroke-width="2" stroke-opacity="0.200000" points="214.59,-815.1 220.59,-813 214.59,-810.9 214.59,-815.1"/>
</g>
<!-- src/views/RestaurantsView.vue&#45;&gt;./categories -->
<g id="edge27" class="edge">
<title>src/views/RestaurantsView.vue&#45;&gt;./categories</title>
<g id="a_edge27"><a xlink:title="not&#45;to&#45;unresolvable">
<path fill="none" stroke="red" stroke-width="2" d="M310.3,-803.68C334.8,-797 367.77,-788.01 392.92,-781.15"/>
<polygon fill="red" stroke="red" stroke-width="2" points="393.31,-783.22 398.55,-779.61 392.2,-779.17 393.31,-783.22"/>
</a>
</g>
<text text-anchor="middle" x="316.35" y="-782.64" font-family="Helvetica,sans-Serif" font-size="9.00" fill="red">not&#45;to&#45;unresolvable</text>
</g>
<!-- src/views/RestaurantsView.vue&#45;&gt;@/components/Category/CategoryCard.vue -->
<g id="edge28" class="edge">
<title>src/views/RestaurantsView.vue&#45;&gt;@/components/Category/CategoryCard.vue</title>
<g id="a_edge28"><a xlink:title="not&#45;to&#45;unresolvable">
<path fill="none" stroke="red" stroke-width="2" d="M280.26,-803.9C292.5,-776.48 328.77,-691.99 345.12,-618 349.17,-599.69 340.35,-547.73 353.12,-534 359.42,-527.23 367.83,-523.14 376.78,-520.79"/>
<polygon fill="red" stroke="red" stroke-width="2" points="377.03,-522.88 382.5,-519.64 376.2,-518.77 377.03,-522.88"/>
</a>
</g>
<text text-anchor="middle" x="293.97" y="-653.06" font-family="Helvetica,sans-Serif" font-size="9.00" fill="red">not&#45;to&#45;unresolvable</text>
</g>
<!-- src/views/RestaurantsView.vue&#45;&gt;@/components/Restaurants/RestaurantCard.vue -->
<g id="edge29" class="edge">
<title>src/views/RestaurantsView.vue&#45;&gt;@/components/Restaurants/RestaurantCard.vue</title>
<g id="a_edge29"><a xlink:title="not&#45;to&#45;unresolvable">
<path fill="none" stroke="red" stroke-width="2" d="M278.13,-803.91C284.53,-776.8 306.8,-695.45 353.12,-647 364.44,-635.17 380.02,-626.17 394.21,-619.74"/>
<polygon fill="red" stroke="red" stroke-width="2" points="394.89,-621.73 399.58,-617.44 393.24,-617.87 394.89,-621.73"/>
</a>
</g>
<text text-anchor="middle" x="277.69" y="-689.08" font-family="Helvetica,sans-Serif" font-size="9.00" fill="red">not&#45;to&#45;unresolvable</text>
</g>
<!-- src/views/RestaurantsView.vue&#45;&gt;@/components/Spinner.vue -->
<g id="edge30" class="edge">
<title>src/views/RestaurantsView.vue&#45;&gt;@/components/Spinner.vue</title>
<g id="a_edge30"><a xlink:title="not&#45;to&#45;unresolvable">
<path fill="none" stroke="red" stroke-width="2" d="M279.72,-803.76C290.47,-775.95 323,-690.47 345.12,-618 349.28,-604.39 342.7,-596.69 353.12,-587 362.83,-577.98 376.31,-573.8 389.28,-572.08"/>
<polygon fill="red" stroke="red" stroke-width="2" points="389.34,-574.18 395.12,-571.54 388.95,-570 389.34,-574.18"/>
</a>
</g>
<text text-anchor="middle" x="284.36" y="-673.85" font-family="Helvetica,sans-Serif" font-size="9.00" fill="red">not&#45;to&#45;unresolvable</text>
</g>
<!-- src/views/RestaurantsView.vue&#45;&gt;@/stores/restaurants -->
<g id="edge31" class="edge">
<title>src/views/RestaurantsView.vue&#45;&gt;@/stores/restaurants</title>
<g id="a_edge31"><a xlink:title="not&#45;to&#45;unresolvable">
<path fill="none" stroke="red" stroke-width="2" d="M279.91,-803.95C292.13,-774.25 330.57,-676.78 345.12,-592 347.14,-580.27 345.39,-387.04 353.12,-378 362.51,-367.03 377.33,-362.58 391.47,-361.12"/>
<polygon fill="red" stroke="red" stroke-width="2" points="391.25,-363.24 397.11,-360.76 390.98,-359.04 391.25,-363.24"/>
</a>
</g>
<text text-anchor="middle" x="305.9" y="-574.11" font-family="Helvetica,sans-Serif" font-size="9.00" fill="red">not&#45;to&#45;unresolvable</text>
</g>
<!-- src/views/AboutView.vue -->
<g id="node34" class="node">
<title>src/views/AboutView.vue</title>
<g id="a_node34"><a xlink:href="src/views/AboutView.vue" xlink:title="no&#45;orphans">
<path fill="#ccffcc" stroke="orange" d="M307.58,-1001.88C307.58,-1001.88 242.67,-1001.88 242.67,-1001.88 239.71,-1001.88 236.75,-998.92 236.75,-995.96 236.75,-995.96 236.75,-990.04 236.75,-990.04 236.75,-987.08 239.71,-984.12 242.67,-984.12 242.67,-984.12 307.58,-984.12 307.58,-984.12 310.54,-984.12 313.5,-987.08 313.5,-990.04 313.5,-990.04 313.5,-995.96 313.5,-995.96 313.5,-998.92 310.54,-1001.88 307.58,-1001.88"/>
<text text-anchor="start" x="244.75" y="-989.33" font-family="Helvetica,sans-Serif" font-size="9.00" fill="orange">AboutView.vue</text>
</a>
</g>
</g>
<!-- src/views/AuthView.vue -->
<g id="node35" class="node">
<title>src/views/AuthView.vue</title>
<g id="a_node35"><a xlink:href="src/views/AuthView.vue" xlink:title="AuthView.vue">
<path fill="#41f083" stroke="black" d="M304.96,-911.88C304.96,-911.88 245.29,-911.88 245.29,-911.88 242.33,-911.88 239.38,-908.92 239.38,-905.96 239.38,-905.96 239.38,-900.04 239.38,-900.04 239.38,-897.08 242.33,-894.12 245.29,-894.12 245.29,-894.12 304.96,-894.12 304.96,-894.12 307.92,-894.12 310.88,-897.08 310.88,-900.04 310.88,-900.04 310.88,-905.96 310.88,-905.96 310.88,-908.92 307.92,-911.88 304.96,-911.88"/>
<text text-anchor="start" x="247.38" y="-899.33" font-family="Helvetica,sans-Serif" font-size="9.00">AuthView.vue</text>
</a>
</g>
</g>
<!-- src/views/AuthView.vue&#45;&gt;src/stores/auth.js -->
<g id="edge20" class="edge">
<title>src/views/AuthView.vue&#45;&gt;src/stores/auth.js</title>
<path fill="none" stroke="#000000" stroke-width="2" stroke-opacity="0.200000" d="M311.25,-903.48C323.67,-901.78 336.65,-897.52 345.12,-888 357.15,-874.49 339.72,-819.15 353.12,-807 374.31,-787.81 583.3,-797.83 610.38,-807 617.15,-809.29 623.64,-813.54 629.09,-817.94"/>
<polygon fill="#000000" fill-opacity="0.200000" stroke="#000000" stroke-width="2" stroke-opacity="0.200000" points="627.67,-819.48 633.56,-821.88 630.44,-816.33 627.67,-819.48"/>
</g>
<!-- src/views/CartView.vue -->
<g id="node36" class="node">
<title>src/views/CartView.vue</title>
<g id="a_node36"><a xlink:href="src/views/CartView.vue" xlink:title="CartView.vue">
<path fill="#41f083" stroke="black" d="M304.21,-971.88C304.21,-971.88 246.04,-971.88 246.04,-971.88 243.08,-971.88 240.12,-968.92 240.12,-965.96 240.12,-965.96 240.12,-960.04 240.12,-960.04 240.12,-957.08 243.08,-954.12 246.04,-954.12 246.04,-954.12 304.21,-954.12 304.21,-954.12 307.17,-954.12 310.12,-957.08 310.12,-960.04 310.12,-960.04 310.12,-965.96 310.12,-965.96 310.12,-968.92 307.17,-971.88 304.21,-971.88"/>
<text text-anchor="start" x="248.12" y="-959.33" font-family="Helvetica,sans-Serif" font-size="9.00">CartView.vue</text>
</a>
</g>
</g>
<!-- src/views/CartView.vue&#45;&gt;src/components/Cards/ItemCard.vue -->
<g id="edge21" class="edge">
<title>src/views/CartView.vue&#45;&gt;src/components/Cards/ItemCard.vue</title>
<path fill="none" stroke="#000000" stroke-width="2" stroke-opacity="0.200000" d="M310.43,-962.15C323.21,-963.72 336.65,-967.99 345.12,-978 357.13,-992.18 341.59,-1130.44 353.12,-1145 361.33,-1155.36 374.06,-1161.06 386.83,-1164.13"/>
<polygon fill="#000000" fill-opacity="0.200000" stroke="#000000" stroke-width="2" stroke-opacity="0.200000" points="386.35,-1166.17 392.64,-1165.28 387.16,-1162.05 386.35,-1166.17"/>
</g>
<!-- src/views/CartView.vue&#45;&gt;src/stores/auth.js -->
<g id="edge23" class="edge">
<title>src/views/CartView.vue&#45;&gt;src/stores/auth.js</title>
<path fill="none" stroke="#000000" stroke-width="2" stroke-opacity="0.200000" d="M310.31,-963.75C323.08,-962.16 336.54,-957.92 345.12,-948 361.6,-928.97 335.62,-853.09 353.12,-835 392.97,-793.83 554.32,-806.18 610.38,-818 613.22,-818.6 616.11,-819.45 618.95,-820.45"/>
<polygon fill="#000000" fill-opacity="0.200000" stroke="#000000" stroke-width="2" stroke-opacity="0.200000" points="618.04,-822.34 624.39,-822.64 619.6,-818.45 618.04,-822.34"/>
</g>
<!-- src/views/CartView.vue&#45;&gt;src/stores/restaurants.js -->
<g id="edge24" class="edge">
<title>src/views/CartView.vue&#45;&gt;src/stores/restaurants.js</title>
<path fill="none" stroke="#000000" stroke-width="2" stroke-opacity="0.200000" d="M310.55,-963.6C323.19,-961.97 336.51,-957.72 345.12,-948 357.71,-933.8 340.05,-876.75 353.12,-863 364.17,-851.39 458.63,-841.49 515.85,-836.49"/>
<polygon fill="#000000" fill-opacity="0.200000" stroke="#000000" stroke-width="2" stroke-opacity="0.200000" points="515.88,-838.59 521.68,-835.99 515.53,-834.41 515.88,-838.59"/>
</g>
<!-- src/views/CartView.vue&#45;&gt;src/components/Spinner.vue -->
<g id="edge22" class="edge">
<title>src/views/CartView.vue&#45;&gt;src/components/Spinner.vue</title>
<path fill="none" stroke="#000000" stroke-width="2" stroke-opacity="0.200000" d="M310.43,-963.1C322.9,-961.37 336.12,-957.2 345.12,-948 358.11,-934.73 339.91,-920.04 353.12,-907 362.63,-897.62 376.19,-893.37 389.29,-891.71"/>
<polygon fill="#000000" fill-opacity="0.200000" stroke="#000000" stroke-width="2" stroke-opacity="0.200000" points="389.42,-893.81 395.21,-891.2 389.06,-889.62 389.42,-893.81"/>
</g>
<!-- src/views/DealsView.vue -->
<g id="node37" class="node">
<title>src/views/DealsView.vue</title>
<g id="a_node37"><a xlink:href="src/views/DealsView.vue" xlink:title="DealsView.vue">
<path fill="#41f083" stroke="black" d="M307.58,-851.88C307.58,-851.88 242.67,-851.88 242.67,-851.88 239.71,-851.88 236.75,-848.92 236.75,-845.96 236.75,-845.96 236.75,-840.04 236.75,-840.04 236.75,-837.08 239.71,-834.12 242.67,-834.12 242.67,-834.12 307.58,-834.12 307.58,-834.12 310.54,-834.12 313.5,-837.08 313.5,-840.04 313.5,-840.04 313.5,-845.96 313.5,-845.96 313.5,-848.92 310.54,-851.88 307.58,-851.88"/>
<text text-anchor="start" x="244.75" y="-839.33" font-family="Helvetica,sans-Serif" font-size="9.00">DealsView.vue</text>
</a>
</g>
</g>
<!-- src/views/DealsView.vue&#45;&gt;@/components/Deals/DealCard.vue -->
<g id="edge25" class="edge">
<title>src/views/DealsView.vue&#45;&gt;@/components/Deals/DealCard.vue</title>
<g id="a_edge25"><a xlink:title="not&#45;to&#45;unresolvable">
<path fill="none" stroke="red" stroke-width="2" d="M313.7,-843.05C325.33,-841.12 337.16,-836.83 345.12,-828 355.9,-816.04 346.68,-770.75 353.12,-756 366.34,-725.75 393.54,-698.24 411.81,-682.05"/>
<polygon fill="red" stroke="red" stroke-width="2" points="413.1,-683.71 416.27,-678.2 410.36,-680.53 413.1,-683.71"/>
</a>
</g>
<text text-anchor="middle" x="314.33" y="-745.33" font-family="Helvetica,sans-Serif" font-size="9.00" fill="red">not&#45;to&#45;unresolvable</text>
</g>
<!-- src/views/HomeView.vue -->
<g id="node38" class="node">
<title>src/views/HomeView.vue</title>
<g id="a_node38"><a xlink:href="src/views/HomeView.vue" xlink:title="no&#45;orphans">
<path fill="#ccffcc" stroke="orange" d="M307.96,-881.88C307.96,-881.88 242.29,-881.88 242.29,-881.88 239.33,-881.88 236.38,-878.92 236.38,-875.96 236.38,-875.96 236.38,-870.04 236.38,-870.04 236.38,-867.08 239.33,-864.12 242.29,-864.12 242.29,-864.12 307.96,-864.12 307.96,-864.12 310.92,-864.12 313.88,-867.08 313.88,-870.04 313.88,-870.04 313.88,-875.96 313.88,-875.96 313.88,-878.92 310.92,-881.88 307.96,-881.88"/>
<text text-anchor="start" x="244.38" y="-869.33" font-family="Helvetica,sans-Serif" font-size="9.00" fill="orange">HomeView.vue</text>
</a>
</g>
</g>
<!-- src/views/OrderListView.vue -->
<g id="node39" class="node">
<title>src/views/OrderListView.vue</title>
<g id="a_node39"><a xlink:href="src/views/OrderListView.vue" xlink:title="OrderListView.vue">
<path fill="#41f083" stroke="black" d="M314.33,-941.88C314.33,-941.88 235.92,-941.88 235.92,-941.88 232.96,-941.88 230,-938.92 230,-935.96 230,-935.96 230,-930.04 230,-930.04 230,-927.08 232.96,-924.12 235.92,-924.12 235.92,-924.12 314.33,-924.12 314.33,-924.12 317.29,-924.12 320.25,-927.08 320.25,-930.04 320.25,-930.04 320.25,-935.96 320.25,-935.96 320.25,-938.92 317.29,-941.88 314.33,-941.88"/>
<text text-anchor="start" x="238" y="-929.33" font-family="Helvetica,sans-Serif" font-size="9.00">OrderListView.vue</text>
</a>
</g>
</g>
<!-- src/views/OrderListView.vue&#45;&gt;src/stores/restaurants.js -->
<g id="edge26" class="edge">
<title>src/views/OrderListView.vue&#45;&gt;src/stores/restaurants.js</title>
<path fill="none" stroke="#000000" stroke-width="2" stroke-opacity="0.200000" d="M320.53,-931.63C329.82,-929.27 338.72,-925.1 345.12,-918 355.9,-906.04 341.47,-857.11 353.12,-846 396.7,-804.46 471.74,-811.76 518.33,-821.74"/>
<polygon fill="#000000" fill-opacity="0.200000" stroke="#000000" stroke-width="2" stroke-opacity="0.200000" points="517.69,-823.75 524.01,-823.03 518.62,-819.66 517.69,-823.75"/>
</g>
<!-- src/views/SingleRestaurantView.vue -->
<g id="node40" class="node">
<title>src/views/SingleRestaurantView.vue</title>
<g id="a_node40"><a xlink:href="src/views/SingleRestaurantView.vue" xlink:title="SingleRestaurantView.vue">
<path fill="#41f083" stroke="black" d="M331.21,-1031.88C331.21,-1031.88 219.04,-1031.88 219.04,-1031.88 216.08,-1031.88 213.12,-1028.92 213.12,-1025.96 213.12,-1025.96 213.12,-1020.04 213.12,-1020.04 213.12,-1017.08 216.08,-1014.12 219.04,-1014.12 219.04,-1014.12 331.21,-1014.12 331.21,-1014.12 334.17,-1014.12 337.12,-1017.08 337.12,-1020.04 337.12,-1020.04 337.12,-1025.96 337.12,-1025.96 337.12,-1028.92 334.17,-1031.88 331.21,-1031.88"/>
<text text-anchor="start" x="221.12" y="-1019.33" font-family="Helvetica,sans-Serif" font-size="9.00">SingleRestaurantView.vue</text>
</a>
</g>
</g>
<!-- src/views/SingleRestaurantView.vue&#45;&gt;@/stores/restaurants.js -->
<g id="edge34" class="edge">
<title>src/views/SingleRestaurantView.vue&#45;&gt;@/stores/restaurants.js</title>
<g id="a_edge34"><a xlink:title="not&#45;to&#45;unresolvable">
<path fill="none" stroke="red" stroke-width="2" d="M337.36,-1015.03C340.25,-1013.07 342.87,-1010.75 345.12,-1008 365.07,-983.61 337.64,-468.44 353.12,-441 362.16,-424.99 378.95,-413.61 394.55,-405.96"/>
<polygon fill="red" stroke="red" stroke-width="2" points="395.22,-407.96 399.8,-403.55 393.47,-404.14 395.22,-407.96"/>
</a>
</g>
<text text-anchor="middle" x="310.75" y="-700.45" font-family="Helvetica,sans-Serif" font-size="9.00" fill="red">not&#45;to&#45;unresolvable</text>
</g>
<!-- src/views/SingleRestaurantView.vue&#45;&gt;src/components/Cards/ItemCard.vue -->
<g id="edge32" class="edge">
<title>src/views/SingleRestaurantView.vue&#45;&gt;src/components/Cards/ItemCard.vue</title>
<path fill="none" stroke="#000000" stroke-width="2" stroke-opacity="0.200000" d="M279.3,-1032.26C287.62,-1055.08 312.24,-1114.36 353.12,-1145 362.97,-1152.38 375.22,-1157.29 387.02,-1160.55"/>
<polygon fill="#000000" fill-opacity="0.200000" stroke="#000000" stroke-width="2" stroke-opacity="0.200000" points="386.23,-1162.52 392.56,-1161.92 387.24,-1158.44 386.23,-1162.52"/>
</g>
<!-- src/views/SingleRestaurantView.vue&#45;&gt;src/components/Spinner.vue -->
<g id="edge33" class="edge">
<title>src/views/SingleRestaurantView.vue&#45;&gt;src/components/Spinner.vue</title>
<path fill="none" stroke="#000000" stroke-width="2" stroke-opacity="0.200000" d="M337.46,-1014.65C340.28,-1012.78 342.87,-1010.59 345.12,-1008 359.94,-991.04 338.03,-923.7 353.12,-907 362.24,-896.91 376,-892.57 389.38,-891.03"/>
<polygon fill="#000000" fill-opacity="0.200000" stroke="#000000" stroke-width="2" stroke-opacity="0.200000" points="389.21,-893.15 395.04,-890.61 388.9,-888.96 389.21,-893.15"/>
</g>
<!-- tests/unit/example.spec.js -->
<g id="node41" class="node">
<title>tests/unit/example.spec.js</title>
<g id="a_node41"><a xlink:href="tests/unit/example.spec.js" xlink:title="example.spec.js">
<path fill="#ffffcc" stroke="black" d="M310.21,-1355.88C310.21,-1355.88 240.04,-1355.88 240.04,-1355.88 237.08,-1355.88 234.12,-1352.92 234.12,-1349.96 234.12,-1349.96 234.12,-1344.04 234.12,-1344.04 234.12,-1341.08 237.08,-1338.12 240.04,-1338.12 240.04,-1338.12 310.21,-1338.12 310.21,-1338.12 313.17,-1338.12 316.12,-1341.08 316.12,-1344.04 316.12,-1344.04 316.12,-1349.96 316.12,-1349.96 316.12,-1352.92 313.17,-1355.88 310.21,-1355.88"/>
<text text-anchor="start" x="242.12" y="-1343.33" font-family="Helvetica,sans-Serif" font-size="9.00">example.spec.js</text>
</a>
</g>
</g>
<!-- tests/unit/example.spec.js&#45;&gt;src/components/Restaurants/RestaurantCard.vue -->
<g id="edge35" class="edge">
<title>tests/unit/example.spec.js&#45;&gt;src/components/Restaurants/RestaurantCard.vue</title>
<path fill="none" stroke="#000000" stroke-width="2" stroke-opacity="0.200000" d="M278.6,-1338C288.04,-1303.55 322.32,-1176.74 345.12,-1071 349.32,-1051.57 341.32,-1042.99 353.12,-1027 362.25,-1014.64 376.32,-1005.78 389.95,-999.59"/>
<polygon fill="#000000" fill-opacity="0.200000" stroke="#000000" stroke-width="2" stroke-opacity="0.200000" points="390.38,-1001.69 395.1,-997.42 388.76,-997.82 390.38,-1001.69"/>
</g>
<!-- url -->
<g id="node42" class="node">
<title>url</title>
<g id="a_node42"><a xlink:href="https://nodejs.org/api/url.html" xlink:title="url">
<path fill="#ffffcc" stroke="grey" d="M183.21,-1399.88C183.21,-1399.88 141.04,-1399.88 141.04,-1399.88 138.08,-1399.88 135.12,-1396.92 135.12,-1393.96 135.12,-1393.96 135.12,-1388.04 135.12,-1388.04 135.12,-1385.08 138.08,-1382.12 141.04,-1382.12 141.04,-1382.12 183.21,-1382.12 183.21,-1382.12 186.17,-1382.12 189.12,-1385.08 189.12,-1388.04 189.12,-1388.04 189.12,-1393.96 189.12,-1393.96 189.12,-1396.92 186.17,-1399.88 183.21,-1399.88"/>
<text text-anchor="middle" x="162.12" y="-1387.33" font-family="Helvetica,sans-Serif" font-size="9.00" fill="grey">url</text>
</a>
</g>
</g>
<!-- vite.config.js -->
<g id="node43" class="node">
<title>vite.config.js</title>
<g id="a_node43"><a xlink:href="vite.config.js" xlink:title="vite.config.js">
<path fill="#ffffcc" stroke="black" d="M91.83,-1399.88C91.83,-1399.88 37.42,-1399.88 37.42,-1399.88 34.46,-1399.88 31.5,-1396.92 31.5,-1393.96 31.5,-1393.96 31.5,-1388.04 31.5,-1388.04 31.5,-1385.08 34.46,-1382.12 37.42,-1382.12 37.42,-1382.12 91.83,-1382.12 91.83,-1382.12 94.79,-1382.12 97.75,-1385.08 97.75,-1388.04 97.75,-1388.04 97.75,-1393.96 97.75,-1393.96 97.75,-1396.92 94.79,-1399.88 91.83,-1399.88"/>
<text text-anchor="middle" x="64.62" y="-1387.33" font-family="Helvetica,sans-Serif" font-size="9.00">vite.config.js</text>
</a>
</g>
</g>
<!-- vite.config.js&#45;&gt;url -->
<g id="edge36" class="edge">
<title>vite.config.js&#45;&gt;url</title>
<path fill="none" stroke="#000000" stroke-dasharray="5,2" stroke-opacity="0.200000" d="M98.22,-1391C107.6,-1391 117.85,-1391 127.31,-1391"/>
<polygon fill="#000000" fill-opacity="0.200000" stroke="#000000" stroke-opacity="0.200000" points="127.17,-1393.1 133.17,-1391 127.17,-1388.9 127.17,-1393.1"/>
</g>
</g>
</svg>
