<?xml version="1.0" standalone="no"?>
<!DOCTYPE svg PUBLIC "-//W3C//DTD SVG 20010904//EN"
 "http://www.w3.org/TR/2001/REC-SVG-20010904/DTD/svg10.dtd">
<svg version="1.0" xmlns="http://www.w3.org/2000/svg"
 width="5714.000000pt" height="2337.000000pt" viewBox="0 0 3714.000000 2337.000000"
 preserveAspectRatio="xMidYMid meet">

<g transform="translate(0.000000,2337.000000) scale(0.100000,-0.100000)"
fill="#000000" stroke="none">
<path d="M20100 23364 c-19 -2 -84 -9 -145 -15 -316 -31 -640 -125 -950 -273
-225 -108 -329 -174 -635 -399 -156 -114 -217 -120 -471 -47 -340 98 -581 133
-914 133 -378 0 -672 -51 -1015 -175 -245 -89 -580 -278 -785 -443 -424 -340
-745 -810 -920 -1345 -40 -121 -77 -190 -128 -237 -63 -58 -101 -75 -293 -132
-517 -152 -944 -401 -1299 -756 -227 -227 -393 -460 -536 -750 -134 -274 -213
-527 -260 -835 -18 -119 -22 -191 -23 -400 -1 -270 8 -374 50 -590 153 -793
648 -1490 1351 -1900 306 -179 639 -296 1018 -357 159 -26 641 -26 805 0 163
26 325 63 475 109 111 35 144 41 225 42 164 2 219 -38 423 -314 178 -240 349
-461 632 -820 479 -606 815 -1025 824 -1025 4 0 71 68 148 150 1221 1309 2788
2092 4491 2242 l194 17 -6 28 c-23 114 -501 1860 -626 2283 -37 128 -71 258
-75 288 -15 119 38 208 193 323 437 327 736 675 956 1114 214 429 308 855 293
1330 -14 438 -111 806 -320 1215 -78 152 -226 380 -333 515 -88 110 -315 337
-424 424 -394 312 -870 514 -1375 581 -114 15 -471 28 -545 19z m495 -489
c504 -79 940 -294 1289 -634 389 -380 622 -834 713 -1386 13 -83 18 -166 18
-340 0 -259 -14 -370 -70 -591 -135 -526 -448 -996 -881 -1320 -113 -85 -203
-135 -307 -170 -143 -49 -198 -53 -637 -47 -412 6 -580 -1 -840 -33 -1007
-125 -1923 -528 -2725 -1199 -258 -216 -293 -260 -302 -389 -9 -131 -19 -131
227 6 1323 738 1957 974 2935 1097 357 45 876 78 964 61 107 -20 127 -55 211
-360 133 -488 292 -1029 441 -1502 98 -311 104 -347 59 -379 -15 -11 -111 -36
-250 -64 -1060 -217 -1962 -588 -2815 -1158 -304 -203 -663 -487 -914 -721
-151 -142 -212 -164 -284 -105 -20 17 -87 96 -149 177 -62 81 -276 359 -477
617 -200 259 -456 589 -567 735 -282 371 -313 396 -473 388 -78 -5 -100 -11
-243 -71 -254 -107 -482 -171 -718 -203 -124 -16 -391 -18 -510 -4 -519 65
-1003 314 -1425 735 -428 427 -647 904 -681 1485 -24 422 120 1004 346 1400
341 594 869 951 1639 1110 172 35 229 54 301 100 98 63 146 149 200 364 53
207 110 367 185 521 296 604 837 1053 1485 1231 200 56 332 75 546 81 377 11
596 -32 1075 -210 180 -67 313 -68 444 -3 71 36 96 55 297 230 275 240 621
418 983 507 106 26 251 50 370 63 85 9 444 -4 540 -19z"/>
<path d="M24534 16706 c-184 -42 -332 -165 -452 -376 -29 -50 -52 -93 -52 -95
0 -2 53 19 119 46 225 93 426 128 563 100 184 -39 319 -185 402 -436 67 -204
97 -441 77 -610 -62 -539 -443 -897 -1018 -957 -143 -15 -328 -5 -1068 57
-790 66 -860 69 -1240 69 -429 0 -705 -21 -1080 -80 -154 -25 -496 -92 -504
-100 -5 -5 106 -315 147 -409 44 -102 111 -206 150 -234 130 -92 214 -91 767
9 624 113 812 133 1350 146 105 2 228 7 275 10 47 2 249 6 450 7 420 3 533 16
835 92 209 53 333 98 495 181 775 397 1059 1311 634 2036 -105 179 -303 394
-435 471 -125 74 -287 102 -415 73z"/>
<path d="M19572 14025 c-19 -8 -64 -43 -100 -79 -37 -35 -119 -105 -182 -155
-319 -254 -617 -568 -1031 -1086 -162 -202 -245 -314 -489 -660 -384 -545
-632 -841 -844 -1011 -312 -249 -726 -276 -1119 -72 -347 181 -657 615 -634
888 18 218 181 405 560 638 l102 64 -205 -5 c-179 -4 -217 -8 -304 -31 -252
-66 -395 -195 -454 -409 -26 -95 -22 -349 7 -487 126 -592 628 -1064 1231
-1155 317 -49 615 13 978 201 371 192 685 461 1010 865 203 253 287 346 546
605 316 316 465 446 801 704 313 240 461 367 505 432 90 135 73 257 -64 458
-28 41 -73 118 -101 170 -70 132 -124 164 -213 125z"/>
<path d="M22315 12563 c-173 -15 -421 -66 -580 -118 -534 -175 -1113 -591
-1580 -1136 -886 -1034 -1602 -2799 -1810 -4459 -9 -74 -20 -139 -24 -145 -4
-5 -63 -79 -131 -163 -584 -727 -1131 -1209 -1462 -1287 -124 -29 -316 -13
-377 32 -66 49 -116 209 -106 338 6 85 46 218 91 307 49 96 211 361 299 488
167 241 366 544 420 639 80 142 117 261 123 394 10 227 -53 496 -161 681 -55
96 -158 198 -236 235 -117 55 -281 64 -450 25 -48 -11 -104 -15 -201 -12 -125
3 -139 6 -190 32 -30 16 -57 30 -59 32 -2 1 6 15 17 31 59 83 118 243 143 383
17 96 17 288 0 365 -32 146 -128 330 -202 386 -84 64 -179 93 -309 94 -150 0
-251 -53 -415 -219 -264 -268 -485 -703 -486 -955 0 -81 21 -192 45 -240 8
-15 49 -60 91 -99 l75 -70 -135 -254 c-75 -139 -228 -435 -340 -658 l-205
-405 -177 -187 c-618 -650 -1244 -1122 -1680 -1268 -172 -57 -279 -74 -443
-67 -163 7 -269 32 -395 92 -244 117 -407 377 -444 706 -9 84 -9 96 7 110 17
17 254 181 637 442 635 431 946 697 1171 998 232 312 348 614 348 904 0 137
-14 198 -72 310 -73 138 -203 233 -378 277 -119 29 -376 32 -504 5 -129 -28
-288 -83 -403 -142 -251 -127 -561 -370 -788 -620 -50 -55 -64 -64 -194 -118
-462 -194 -1047 -337 -1485 -363 l-115 -7 -18 110 c-33 209 -100 389 -191 517
-92 128 -193 166 -362 135 -261 -48 -545 -283 -623 -516 -44 -131 -23 -311 50
-424 58 -91 203 -192 328 -230 23 -7 45 -19 48 -26 8 -20 -25 -201 -64 -357
-114 -455 -348 -966 -589 -1286 -95 -126 -226 -264 -316 -333 -175 -134 -381
-181 -520 -119 -262 116 -369 660 -282 1436 l17 150 227 450 c355 705 542
1138 795 1841 174 484 301 896 440 1434 170 655 221 970 214 1327 -5 241 -13
249 -244 248 -152 -1 -246 -24 -402 -99 -156 -76 -238 -175 -378 -455 -203
-406 -508 -1201 -755 -1965 -258 -799 -496 -1861 -565 -2520 -36 -353 -43
-861 -15 -1160 29 -313 106 -598 221 -826 128 -255 321 -414 549 -456 145 -26
390 -24 499 5 244 64 474 201 756 451 382 339 773 925 998 1496 86 218 157
479 173 636 l6 66 143 11 c310 26 748 132 1078 263 53 22 100 39 102 39 3 0
-18 -42 -46 -92 -165 -303 -285 -619 -337 -888 -30 -154 -31 -161 -42 -334
-17 -269 11 -519 81 -731 42 -127 146 -334 220 -440 206 -290 528 -497 881
-566 552 -107 1343 206 2112 835 54 45 109 89 123 100 17 13 -15 -60 -120
-271 -85 -170 -150 -313 -158 -346 -16 -72 -1 -127 46 -174 30 -30 38 -33 94
-33 110 0 171 40 259 168 82 120 491 792 1173 1927 318 528 581 966 586 972 8
12 63 -4 218 -64 55 -22 246 -28 404 -14 147 14 192 7 234 -36 59 -62 76 -187
43 -320 -21 -85 -108 -266 -236 -493 -51 -91 -130 -232 -175 -315 -45 -82
-115 -206 -154 -275 -96 -166 -232 -445 -269 -550 -42 -121 -56 -216 -49 -335
16 -255 120 -490 288 -651 187 -178 364 -241 644 -231 198 7 342 52 551 173
414 238 796 583 1241 1120 l100 121 7 -75 c3 -41 6 -103 6 -137 0 -99 27 -358
56 -525 164 -978 651 -1730 1330 -2060 408 -199 919 -232 1352 -89 672 221
1330 850 1804 1724 85 157 108 220 108 299 0 134 -67 226 -164 226 -85 0 -141
-51 -241 -218 -82 -138 -237 -351 -354 -487 -91 -106 -304 -312 -414 -401
-209 -169 -509 -340 -707 -403 -129 -42 -216 -59 -359 -70 -193 -16 -329 6
-505 79 -395 165 -685 639 -780 1277 -58 387 -40 1005 50 1713 140 1105 482
2259 945 3190 318 639 642 1105 1035 1490 286 279 523 432 795 510 93 27 288
38 372 20 161 -33 336 -168 407 -314 66 -134 75 -183 75 -406 0 -365 -82 -800
-208 -1115 -148 -369 -296 -560 -517 -670 -30 -15 -56 -29 -58 -30 -8 -7 71
-173 115 -243 117 -189 297 -333 456 -366 48 -10 88 -11 152 -5 450 46 797
500 945 1239 48 239 65 403 64 625 -2 689 -213 1230 -598 1529 -271 211 -518
288 -912 284 -99 -1 -197 -3 -219 -5z m-10040 -4012 c82 -38 123 -108 132
-226 11 -138 -32 -285 -131 -452 -170 -288 -452 -546 -1071 -982 -90 -63 -141
-94 -143 -85 -5 19 23 156 63 309 137 530 437 1059 735 1298 174 139 313 185
415 138z"/>
<path d="M5630 12414 c-217 -35 -500 -166 -571 -264 -31 -42 -407 -1442 -658
-2450 -238 -954 -534 -2240 -586 -2550 -57 -334 -280 -1093 -448 -1521 -351
-893 -840 -1616 -1237 -1828 -41 -22 -115 -52 -165 -67 -118 -35 -297 -37
-416 -6 -244 65 -405 231 -507 523 -152 435 -150 991 8 1989 106 667 258 1316
459 1946 38 121 83 273 101 339 248 945 743 2408 1215 3597 96 240 103 215
-70 225 -130 6 -235 -5 -478 -53 -211 -41 -334 -80 -437 -136 -148 -81 -227
-144 -275 -218 -28 -45 -272 -842 -474 -1550 -271 -953 -482 -1800 -685 -2760
-199 -940 -329 -1741 -382 -2355 -24 -274 -24 -721 -1 -900 65 -487 188 -781
426 -1015 242 -239 507 -345 911 -365 311 -16 606 43 869 173 269 132 464 274
697 507 218 217 358 399 530 690 l59 100 7 -191 c20 -555 107 -910 262 -1069
95 -96 186 -122 374 -106 207 18 398 79 445 142 l19 27 -29 43 c-72 105 -122
236 -158 412 -62 306 -87 671 -66 952 15 207 85 880 121 1170 114 903 345
1936 653 2915 31 96 83 272 117 390 274 958 680 2239 934 2945 l93 260 -27 12
c-115 50 -453 76 -630 47z"/>
<path d="M34806 12139 c-235 -28 -403 -78 -601 -177 -140 -70 -135 -64 -120
-120 73 -274 94 -428 102 -747 13 -551 -53 -1007 -237 -1650 -15 -55 -47 -185
-70 -290 -116 -522 -350 -1331 -495 -1707 -37 -96 -37 -97 -90 -123 -30 -14
-66 -40 -82 -58 -16 -18 -65 -60 -108 -94 -144 -109 -268 -254 -346 -402 -60
-114 -564 -605 -884 -860 -324 -259 -622 -446 -859 -541 -265 -105 -556 -117
-807 -34 -299 98 -505 390 -537 760 l-8 85 70 51 c38 28 225 156 415 286 709
482 993 706 1211 956 300 344 459 686 476 1021 15 289 -117 509 -362 601 -211
79 -544 66 -814 -31 -176 -64 -411 -203 -610 -361 -118 -94 -389 -367 -494
-499 -356 -447 -631 -1004 -722 -1460 l-18 -90 -107 -115 c-188 -203 -460
-462 -599 -571 -447 -351 -702 -487 -894 -477 -97 4 -147 37 -191 123 -26 52
-30 68 -29 139 1 98 31 188 244 736 229 588 295 782 370 1090 48 198 60 304
60 521 0 226 -14 327 -63 458 -77 204 -211 328 -414 382 -61 17 -107 21 -213
21 -205 0 -364 -39 -556 -138 -368 -188 -723 -510 -1031 -936 -47 -65 -87
-118 -88 -118 -4 0 45 187 126 485 93 339 207 709 364 1185 238 721 418 1342
510 1765 50 227 61 299 70 487 7 139 -3 190 -50 253 -44 57 -75 68 -207 73
-143 5 -228 -6 -457 -63 -195 -49 -233 -61 -316 -101 l-57 -28 6 -41 c22 -156
27 -283 16 -437 -24 -362 -60 -549 -285 -1518 -458 -1968 -710 -3034 -975
-4130 -84 -344 -152 -635 -152 -647 0 -12 13 -50 29 -85 48 -103 155 -197 271
-240 84 -32 283 -32 362 0 104 41 104 42 154 267 25 110 72 333 105 495 33
162 91 444 130 625 38 182 93 443 121 580 58 283 52 269 216 502 308 435 637
758 924 907 120 62 205 86 304 86 136 0 211 -49 252 -165 21 -61 25 -297 6
-420 -27 -171 -109 -470 -215 -780 -265 -779 -323 -1010 -334 -1320 -5 -141
-3 -170 15 -242 39 -155 130 -301 266 -430 146 -139 270 -170 470 -119 363 94
978 533 1671 1194 l150 143 3 -33 c13 -157 78 -379 162 -554 232 -483 685
-793 1185 -811 381 -14 797 111 1263 381 418 241 795 538 1185 935 93 94 170
171 172 171 1 0 18 -24 36 -52 19 -29 52 -72 73 -96 l40 -43 -26 -102 c-14
-56 -122 -482 -241 -947 -501 -1961 -683 -2706 -858 -3520 l-53 -245 0 -225
c-1 -201 1 -234 22 -313 79 -314 253 -511 503 -572 92 -22 268 -30 372 -16
624 83 1357 644 1889 1446 285 429 516 942 633 1404 65 257 101 572 92 796
-17 404 -171 867 -430 1287 -278 450 -538 735 -975 1065 -108 82 -151 121
-148 132 12 39 189 602 208 660 l20 64 96 44 c150 70 295 128 592 236 563 204
691 242 1065 316 260 52 474 82 886 125 362 37 404 47 483 108 81 61 110 130
86 202 -23 70 -27 71 -365 70 -748 -2 -1655 -150 -2469 -405 -70 -22 -130 -39
-132 -36 -2 2 59 203 137 448 77 244 199 633 270 864 72 231 182 584 244 785
172 554 342 1132 370 1255 57 254 80 501 72 795 -5 193 -23 376 -42 422 -3 9
-23 25 -43 34 -44 22 -237 28 -366 13z m-3892 -3581 c59 -18 112 -75 132 -145
22 -76 14 -231 -16 -323 -65 -193 -178 -360 -384 -566 -197 -197 -398 -360
-706 -574 -74 -52 -157 -110 -184 -129 l-49 -35 7 44 c29 183 105 456 179 641
196 487 464 862 728 1020 123 73 207 92 293 67z m2678 -3150 c237 -195 521
-567 688 -900 105 -210 155 -379 197 -658 24 -163 24 -509 -1 -640 -114 -615
-482 -1312 -929 -1762 -293 -295 -534 -432 -782 -445 -93 -5 -102 -4 -135 19
-50 33 -69 96 -70 225 -1 224 58 532 244 1279 69 275 134 549 146 609 111 580
369 1650 557 2308 3 9 9 17 14 17 4 0 36 -23 71 -52z"/>
</g>
</svg>
